<svg width="32" height="32" viewBox="0 0 32 32" fill="none" xmlns="http://www.w3.org/2000/svg">
<path d="M28.3278 23.4858C27.9617 23.4118 27.7062 23.3204 27.4024 23.1559C27.134 23.0098 26.7336 22.7096 26.5606 22.5241L26.4628 22.4195L19.6999 22.4187C13.2026 22.4179 12.9302 22.4147 12.7757 22.3431C12.2264 22.0888 12.0957 21.3431 12.5234 20.9013C12.6703 20.7496 12.9145 20.6627 13.2751 20.6337C13.5615 20.6108 13.6267 20.5677 13.665 20.3774C13.7511 19.9461 12.7503 19.7936 11.5887 20.0611C10.8157 20.239 10.2781 20.4961 9.47977 21.0687C8.71966 21.6139 8.46294 21.7741 7.96358 22.0139C6.93469 22.5084 5.85308 22.7805 4.10432 22.9853C3.06536 23.1068 2.21915 23.1309 1.8912 23.0484C1.00717 22.8259 0.275231 22.1053 0.0647839 21.2502C-0.0173025 20.915 -0.0189121 20.2965 0.0615647 19.9871C0.212459 19.4077 0.66836 18.8182 1.1987 18.5164C1.33471 18.4391 1.44657 18.3667 1.44697 18.3554C1.44738 18.3442 1.33833 18.2754 1.20514 18.2021C0.758896 17.9571 0.299374 17.4042 0.119106 16.8956C0.053517 16.7097 0.0253503 16.5181 0.0104621 16.1528C-0.00804759 15.7033 -0.000402528 15.6309 0.0941577 15.3279C0.283278 14.7231 0.684858 14.2229 1.25826 13.8789C1.51015 13.7276 1.51015 13.7244 1.23049 13.5852C1.14398 13.5421 0.924679 13.3618 0.743203 13.1848C0.237809 12.6911 0 12.1338 0 11.4417C0 10.7769 0.24304 10.1818 0.70216 9.72228C1.02487 9.39917 1.30614 9.22816 1.73468 9.09336L2.03204 9H4.76825C7.23044 9 7.63524 8.99719 7.98612 9.1344C8.06297 9.16418 8.13701 9.2012 8.22996 9.24586C8.56676 9.40923 8.86412 9.66032 9.12245 9.99912C10.1002 11.2835 10.9585 11.8332 11.991 11.8364C12.1568 11.8368 12.3612 11.8561 12.4449 11.8795C12.7676 11.9692 13.0139 12.3201 12.991 12.6589C12.9817 12.8021 12.9902 12.821 13.0586 12.8086C13.2018 12.7828 13.4714 12.5997 13.5849 12.4509C13.8947 12.0452 13.813 11.4638 13.4199 11.2735C13.3084 11.2196 13.1286 11.1849 12.8739 11.168C12.5093 11.1443 12.259 11.0707 12.1101 10.9439C11.8579 10.7286 11.7605 10.3005 11.888 9.96653C11.9689 9.75528 12.2212 9.52109 12.4308 9.46275C12.521 9.4378 13.9535 9.42291 16.2672 9.42291L19.9603 9.42251L20.1602 9.28489C20.2109 9.24988 20.2488 9.22011 20.2894 9.19436C20.5506 9.02898 20.9236 9.04024 25.5916 9.04024H30.5208L30.7486 9.15211C31.2222 9.38468 31.462 9.74804 31.5111 10.3065C31.5276 10.4953 31.5425 12.4585 31.5441 14.6696L31.5469 18.689L31.6894 18.9856C31.9211 19.4668 31.9996 19.827 32 20.4076C32.0004 20.8385 31.9851 20.9625 31.8918 21.2727C31.7195 21.8465 31.5405 22.1439 31.1043 22.5805C30.8942 22.7909 30.6178 23.0239 30.4902 23.0987C29.8472 23.4754 29.0147 23.6247 28.3278 23.4858ZM4.16387 22.5789C4.1691 22.5873 4.17111 22.595 4.17514 22.6006C4.19767 22.6316 4.28499 22.6147 5.29135 22.4606C5.69896 22.3982 6.66348 22.1551 7.0723 22.0119C7.61512 21.8216 8.46334 21.3681 8.94419 21.0108C10.3783 19.9449 11.3352 19.5827 12.7153 19.5827C13.3624 19.5827 13.3853 19.5855 13.6106 19.6962C14.0018 19.8885 14.1647 20.2973 13.9869 20.6414C13.8629 20.8812 13.6694 20.9754 13.1861 21.0309C12.6361 21.0941 12.461 21.5846 12.8626 21.9367L12.9998 22.0574L15.9859 22.055C19.0191 22.0525 20.285 22.0131 20.4415 21.9161C20.4753 21.8956 20.4761 21.8751 20.4447 21.8437C20.4206 21.8196 20.4009 21.7713 20.4009 21.7363C20.4009 21.6884 20.3542 21.6703 20.2122 21.6642C19.9277 21.6518 19.8919 21.5745 20.1707 21.5745C20.3771 21.5745 20.4017 21.5653 20.423 21.4799C20.4359 21.428 20.4411 21.315 20.4339 21.2285L20.421 21.0715L20.19 21.0595C20.011 21.0502 19.9498 21.0301 19.9176 20.9697C19.8842 20.9082 19.8923 20.882 19.9574 20.8414C20.0472 20.7854 20.0629 20.6893 19.9937 20.6201C19.9691 20.5955 19.9285 20.5412 19.9031 20.4989C19.6995 20.1585 19.6669 20.1255 19.5128 20.1006C19.3639 20.0768 19.3595 20.072 19.4162 19.9911C19.4488 19.9449 19.4754 19.8205 19.4754 19.7147C19.4754 19.6089 19.4935 19.5223 19.5156 19.5223C19.5378 19.5223 19.5559 19.4318 19.5559 19.3212V19.12H19.415C19.2476 19.12 19.2344 19.0745 19.3792 18.9968C19.5213 18.9208 19.5559 18.8101 19.5559 18.4331C19.5559 18.1293 19.5514 18.114 19.4653 18.1132C19.3921 18.1128 19.3865 18.1052 19.4351 18.0738C19.479 18.0456 19.481 18.0347 19.4428 18.0343C19.4138 18.0339 19.4026 18.0134 19.4178 17.9889C19.4331 17.9643 19.4207 17.9281 19.3901 17.9084C19.343 17.8782 19.343 17.8669 19.3909 17.8364C19.4215 17.8166 19.436 17.7712 19.4223 17.7358C19.4082 17.6987 19.4182 17.6702 19.4464 17.6686C19.4734 17.667 19.4593 17.6501 19.415 17.6311C19.3438 17.6006 19.347 17.5961 19.4452 17.5937C19.5522 17.5909 19.5559 17.5837 19.5559 17.3696C19.5559 17.1559 19.5522 17.1483 19.4452 17.1451C19.3844 17.1435 19.3575 17.1326 19.3853 17.1217C19.413 17.1105 19.4255 17.0851 19.4134 17.0654C19.4013 17.0453 19.4098 16.9946 19.4323 16.9523C19.4549 16.9101 19.4778 16.8191 19.483 16.7503C19.4883 16.6815 19.5084 16.6252 19.5281 16.6252C19.5474 16.6252 19.5522 16.521 19.5386 16.3938C19.5249 16.2667 19.5036 16.0494 19.4911 15.9109L19.4685 15.6595L19.2404 15.6522L19.0126 15.6454L19.2943 15.622L19.576 15.5991L19.5885 15.4301C19.5961 15.3227 19.5764 15.2241 19.5341 15.1597C19.477 15.0724 19.4738 15.0201 19.5112 14.7855C19.5349 14.6354 19.5526 14.3408 19.5506 14.1304C19.5482 13.92 19.5599 13.6439 19.5764 13.5168C19.6042 13.2991 19.6009 13.2854 19.5213 13.2854C19.4525 13.2854 19.4392 13.2645 19.45 13.1727C19.4569 13.1108 19.4448 13.0158 19.4231 12.9615C19.3458 12.7716 19.3583 12.6818 19.4613 12.6818C19.5482 12.6818 19.5559 12.6649 19.5559 12.4778C19.5559 12.1969 19.5068 12.1587 19.143 12.1587C18.8175 12.1587 18.7652 12.139 18.8537 12.0505C18.9422 11.962 18.9277 11.8368 18.8288 11.8368C18.7833 11.8368 18.7109 11.8179 18.6678 11.795C18.5869 11.7519 18.5881 11.7479 18.7386 11.5793C18.7712 11.5427 18.7732 11.5129 18.7447 11.4843C18.6923 11.432 18.7768 11.2598 18.8368 11.2968C18.8593 11.3109 18.9137 11.2839 18.9571 11.2377C19.0143 11.1757 19.0847 11.1528 19.2154 11.1528C19.314 11.1528 19.3949 11.1709 19.3949 11.193C19.3949 11.265 19.4694 11.2352 19.4955 11.1528C19.5096 11.1085 19.5261 10.8321 19.5321 10.5391C19.5382 10.2458 19.5559 9.97659 19.572 9.94038C19.5953 9.88766 19.5699 9.86915 19.4476 9.84743C19.2456 9.81161 12.8304 9.76936 12.6534 9.80236C12.3307 9.86312 12.1427 10.1822 12.2586 10.4723C12.3544 10.7113 12.5013 10.7781 12.9797 10.7995C13.3298 10.8156 13.4135 10.8337 13.5974 10.9339C14.001 11.1532 14.1933 11.529 14.1539 12.0203C14.1176 12.4686 13.7961 12.9007 13.3463 13.1059C13.0195 13.2544 12.2767 13.4407 11.8434 13.4826C11.3939 13.5256 11.1847 13.5993 10.9915 13.7819C10.7948 13.9686 10.7437 14.0938 10.7437 14.3911C10.7437 14.8088 10.9026 15.0897 11.2362 15.2615C11.4345 15.3633 11.9536 15.4824 12.451 15.54C13.3813 15.6474 13.8577 15.9492 14.0291 16.5391C14.1945 17.1084 13.9205 17.6903 13.368 17.943C13.1801 18.0291 13.1081 18.0408 12.8618 18.0239C12.5713 18.0042 12.3934 17.9406 11.4679 17.5265C11.0631 17.3455 10.7123 17.3012 10.5107 17.4054C10.3324 17.4976 10.1517 17.4903 10.12 17.3897C10.0753 17.2489 10.1381 17.1563 10.3509 17.0505C10.7461 16.8533 11.0998 16.9117 11.9991 17.3221C12.7455 17.6625 12.8453 17.6883 13.1093 17.6098C13.5044 17.4923 13.7209 17.1567 13.6646 16.7475C13.5953 16.2425 13.2159 16.0244 12.1922 15.9013C10.9078 15.7472 10.3409 15.2917 10.3417 14.4149C10.3417 14.2696 10.3602 14.0841 10.3827 14.0024C10.4531 13.7493 10.6656 13.4777 10.9046 13.3349C11.173 13.1743 11.2885 13.1417 11.8389 13.0701C12.3081 13.009 12.5021 12.9257 12.5874 12.7486C12.6526 12.6142 12.6188 12.4344 12.5101 12.3362C12.4486 12.2802 12.329 12.2577 11.9794 12.236C11.1026 12.1809 10.5461 11.9515 9.87249 11.3676C9.73608 11.2493 9.61859 11.1528 9.61094 11.1532C9.6033 11.1532 9.59565 11.3045 9.59444 11.4892C9.58921 12.2915 9.13211 13.0971 8.4219 13.5558C8.29273 13.6395 8.18731 13.7256 8.18771 13.7469C8.18811 13.7687 8.31929 13.8737 8.47904 13.9803C8.83796 14.2205 9.08825 14.5018 9.29225 14.8949C9.52765 15.348 9.58962 15.6333 9.56628 16.1624C9.55018 16.5302 9.52644 16.6578 9.42544 16.9165C9.26167 17.3366 9.09951 17.578 8.77881 17.8802C7.78372 18.8182 6.29087 18.7775 5.30141 17.7857L4.98956 17.4726V19.1175C4.98956 20.9653 4.96985 21.1601 4.73043 21.6779C4.65196 21.8485 4.48618 22.1113 4.36265 22.2626C4.23912 22.4135 4.14938 22.5559 4.16387 22.5789ZM20.5844 20.3657C20.7377 20.4422 20.8262 20.4446 23.2377 20.4362L25.7325 20.4277L25.759 20.0857C25.8238 19.258 26.1654 18.5856 26.8088 18.0206C27.1002 17.7651 27.6542 17.4299 27.7858 17.4299C27.8317 17.4299 27.8864 17.4147 27.9073 17.3961C28.0784 17.2453 29.232 17.1974 29.6931 17.3221C30.0681 17.4231 30.3985 17.5812 30.7268 17.817L31.015 18.0235L31.0323 17.8979C31.0419 17.8287 31.0484 16.0606 31.0467 13.9686L31.0439 10.1653L30.9413 9.96532C30.8681 9.82288 30.7816 9.73033 30.6423 9.64422L30.4468 9.5231H25.5948C20.9381 9.5231 20.7373 9.52592 20.6021 9.59795C20.4202 9.69492 20.25 9.85386 20.1659 10.006C20.1047 10.1162 20.0983 10.5431 20.0882 14.9509C20.0774 19.7272 20.0782 19.7771 20.159 19.944C20.2568 20.1456 20.3711 20.2591 20.5844 20.3657ZM28.3278 23.0987C28.5504 23.1583 29.2074 23.1486 29.4947 23.0814C29.6388 23.0476 29.9269 22.9374 30.1353 22.8364C30.6029 22.6094 30.994 22.2352 31.254 21.7648C31.5183 21.2876 31.5964 21.0172 31.6173 20.5082C31.6387 19.9879 31.5771 19.6676 31.3715 19.2278C31.0978 18.6423 30.611 18.1542 30.038 17.8911C29.6263 17.7024 29.3748 17.6525 28.8509 17.6569C28.3182 17.6617 27.9138 17.768 27.5154 18.0078C26.864 18.4001 26.3779 19.0455 26.2153 19.7336C26.1381 20.0615 26.1381 20.7271 26.2157 21.0329C26.297 21.3544 26.5537 21.8658 26.7722 22.1411C27.0893 22.541 27.7387 22.9406 28.3278 23.0987ZM4.85557 13.5401C4.87005 13.555 5.42776 13.5671 6.09451 13.5671C7.04776 13.5671 7.35759 13.5538 7.54631 13.5059C8.90275 13.1594 9.58881 11.7382 9.00656 10.4804C8.88303 10.214 8.40701 9.74442 8.10603 9.59272C7.73543 9.40561 7.51372 9.38227 6.10899 9.38227H4.82861V11.4477C4.82861 12.584 4.84068 13.5256 4.85557 13.5401ZM1.95599 18.1333C2.18213 18.1953 4.56706 18.2194 4.60368 18.1599C4.61575 18.1406 4.61374 17.1793 4.59965 16.0236L4.5739 13.9216L3.30317 13.9389C2.12217 13.9546 2.01514 13.9622 1.79383 14.0435C1.44939 14.1698 1.23451 14.3066 0.972964 14.5658C0.148479 15.3834 0.154918 16.7596 0.987048 17.576C1.2482 17.8323 1.6027 18.0363 1.95599 18.1333ZM2.11252 13.5204C2.22317 13.5417 2.82071 13.5562 3.44038 13.553L4.56706 13.5469L4.57752 11.4634L4.58798 9.38026L3.31001 9.39313C2.48029 9.40158 1.97329 9.42291 1.86384 9.4543C1.63811 9.51868 1.23049 9.76131 1.01521 9.96009C0.918643 10.049 0.765737 10.2462 0.675603 10.3979C0.0724289 11.4127 0.505394 12.8045 1.5858 13.3256C1.76486 13.4117 2.00186 13.4995 2.11252 13.5204ZM2.00307 22.7193C2.85773 22.9265 3.7136 22.5704 4.254 21.7825C4.53366 21.3753 4.58396 21.0764 4.58839 19.804C4.5904 19.2173 4.5908 18.6971 4.58959 18.6472L4.58718 18.5566H3.35548C2.02962 18.5566 1.84211 18.5784 1.44496 18.7799C1.1822 18.9127 0.812413 19.2668 0.645022 19.5453C0.302995 20.1134 0.27161 20.9174 0.566155 21.5673C0.797525 22.0775 1.42243 22.5785 2.00307 22.7193ZM6.51862 18.1184C6.79586 18.2082 7.26867 18.2146 7.58655 18.1329C7.99577 18.0279 8.24807 17.8802 8.56394 17.5615C8.90194 17.2203 9.05766 16.9314 9.16228 16.4489C9.22103 16.1789 9.22345 16.0908 9.18039 15.7951C9.1148 15.3404 9.01099 15.0776 8.77358 14.7638C7.9841 13.7208 6.4482 13.6427 5.5529 14.5996C4.74089 15.4675 4.7594 16.7354 5.59636 17.5591C5.88084 17.8388 6.13958 17.9957 6.51862 18.1184ZM9.47494 19.8052C8.68546 20.1984 8.5402 20.233 8.29877 20.0861C7.76279 19.7589 7.99135 19.0508 8.81503 18.4874C9.9405 17.7173 11.5641 17.8126 11.6591 18.6544C11.6756 18.8041 11.6635 18.8475 11.5818 18.9292C11.4784 19.0326 11.3931 19.0668 10.662 19.2982C10.3883 19.3847 9.90066 19.5932 9.47494 19.8052ZM9.46769 19.3859C10.0729 19.0946 10.5256 18.9192 11.0354 18.7791C11.2724 18.7136 11.2961 18.6866 11.2269 18.5574C11.1018 18.3236 10.2568 18.2568 9.69746 18.4367C9.3502 18.5482 8.7607 18.9224 8.57158 19.1513C8.43518 19.3163 8.34504 19.561 8.38327 19.6612C8.4227 19.7638 8.5748 19.8016 8.71161 19.7433C8.77801 19.7147 9.11802 19.5541 9.46769 19.3859ZM5.12114 14.5344C5.18271 14.4475 5.33642 14.2901 5.46317 14.1847C5.58992 14.0797 5.71104 13.9791 5.73196 13.9614C5.75288 13.9437 5.58549 13.9292 5.35976 13.9292H4.94932V14.3115C4.94932 14.5219 4.963 14.6933 4.9795 14.6929C4.996 14.6925 5.05998 14.6209 5.12114 14.5344ZM20.9497 21.6035C20.9823 21.6276 21.0004 21.6421 21.0209 21.6481C21.0535 21.657 21.093 21.6437 21.2076 21.6095C21.3593 21.564 21.3602 21.5628 21.3734 21.3242C21.3819 21.1745 21.369 21.0699 21.3396 21.0454C21.3135 21.024 21.2048 21.012 21.0982 21.0188L20.9039 21.0313L20.8918 21.2916C20.8817 21.5025 20.893 21.562 20.9497 21.6035ZM21.7625 21.4409C21.7992 21.4687 21.8535 21.4832 21.8829 21.4727C21.9122 21.4622 21.9995 21.4538 22.0764 21.4538H22.216L22.2036 21.2627L22.1915 21.0715L22.0003 21.0595C21.8491 21.0494 21.8092 21.0599 21.8092 21.1098C21.8092 21.144 21.7867 21.1721 21.7589 21.1721C21.6833 21.1721 21.6861 21.3826 21.7625 21.4409ZM19.3044 11.7241C19.4448 11.733 19.5032 11.7366 19.5337 11.7097C19.5551 11.6903 19.5627 11.6553 19.576 11.5958C19.621 11.391 19.5716 11.3137 19.3953 11.3137C19.1482 11.3137 19.1132 11.3415 19.1132 11.537V11.7117L19.3044 11.7241ZM19.2138 14.0902C19.2275 14.1123 19.2106 14.1304 19.176 14.1304C19.1366 14.1304 19.1132 14.0946 19.1132 14.0346C19.1132 13.9373 19.0275 13.8833 18.7817 13.8258C18.7209 13.8117 18.6803 13.7852 18.6911 13.7675C18.7024 13.7493 18.6887 13.7256 18.661 13.7143C18.6332 13.7035 18.7579 13.6926 18.939 13.691C19.2999 13.6874 19.3406 13.7143 19.2492 13.8958C19.2066 13.9799 19.2058 14.0077 19.2444 14.0234C19.2822 14.0387 19.2814 14.0443 19.2416 14.0467C19.2126 14.0483 19.2002 14.068 19.2138 14.0902ZM18.8581 18.5341C18.8449 18.5687 18.8062 18.5969 18.7724 18.5969C18.7274 18.5969 18.7109 18.5538 18.7109 18.4359C18.7109 18.3474 18.7294 18.275 18.7519 18.275C18.8111 18.275 18.8867 18.4597 18.8581 18.5341ZM19.1985 20.8804C19.1917 20.954 18.9925 20.9444 18.9925 20.8703C18.9925 20.8369 19.0267 20.81 19.0686 20.81C19.1434 20.81 19.2158 20.7078 19.1969 20.6289C19.1913 20.6068 19.201 20.6027 19.2183 20.6201C19.2645 20.6663 19.273 20.7697 19.2303 20.7697C19.2102 20.7697 19.1957 20.7834 19.1985 20.7999C19.201 20.8164 19.201 20.8526 19.1985 20.8804ZM19.8255 21.6952C19.7917 21.6952 19.7349 21.7061 19.6999 21.7198C19.6106 21.754 19.6206 21.6844 19.7132 21.6264C19.7752 21.5878 19.8001 21.5898 19.8391 21.6365C19.8782 21.6836 19.8754 21.6952 19.8255 21.6952ZM17.8803 12.5812C17.8369 12.6943 17.8015 12.642 17.8192 12.4911C17.8345 12.3579 17.8405 12.3511 17.8703 12.4307C17.8884 12.4802 17.8932 12.5482 17.8803 12.5812Z" fill="#151D58"/>
<path d="M19.3233 20.5018C19.4038 20.5344 19.8299 20.5311 19.8504 20.4981C19.8605 20.4812 19.8239 20.3915 19.7687 20.2982C19.708 20.1947 19.6613 20.1452 19.5925 20.1191C19.6858 20.1513 19.7394 20.2273 19.9019 20.4989C19.9273 20.5412 19.9679 20.5955 19.9925 20.6201C20.0617 20.6893 20.046 20.7854 19.9562 20.8414C19.8911 20.882 19.883 20.9082 19.9164 20.9697C19.9486 21.0301 20.0098 21.0502 20.1888 21.0595L20.4198 21.0715L20.4327 21.2285C20.4351 21.2578 20.4359 21.29 20.4359 21.3222L20.4319 21.2627L20.4198 21.0715L16.4161 21.0506V21.4538H20.427C20.4254 21.4639 20.4238 21.4727 20.4218 21.48C20.4005 21.5653 20.3759 21.5745 20.1695 21.5745C19.8907 21.5745 19.9265 21.6518 20.211 21.6642C20.353 21.6703 20.3997 21.6884 20.3997 21.7363C20.3997 21.7713 20.4194 21.8196 20.4435 21.8437C20.4749 21.8751 20.4741 21.8956 20.4403 21.9161C20.2838 22.0131 19.0179 22.0525 15.9847 22.055L13.5467 22.057L14.2187 22.0469C15.4278 22.0284 15.7702 21.9898 15.7014 21.8799C15.6737 21.8357 15.6688 21.8151 15.6576 21.6852C15.6544 21.6461 15.619 21.6148 15.5779 21.6148C15.5373 21.6148 15.4805 21.5705 15.4516 21.5162C15.3819 21.3866 15.4182 20.9766 15.5119 20.8341C15.5505 20.775 15.5727 20.7174 15.561 20.7062C15.5497 20.6945 15.5546 20.6225 15.5719 20.5456C15.5892 20.4688 15.5908 20.2615 15.5755 20.0853C15.559 19.8913 15.5634 19.7598 15.5864 19.7521C15.6077 19.7449 15.5948 19.6785 15.5578 19.6044C15.4777 19.4439 15.4729 19.3743 15.5409 19.3497C15.5807 19.3357 15.5799 19.3123 15.5373 19.2403C15.497 19.1731 15.4858 18.996 15.493 18.5611C15.4982 18.2379 15.4898 17.9438 15.4741 17.9076C15.4294 17.8054 15.5634 17.3893 15.6322 17.4159C15.6632 17.4275 15.6998 17.473 15.7135 17.5161C15.7348 17.5833 15.7694 17.5929 15.9465 17.5829L16.1545 17.5708L16.167 17.3941C16.1742 17.2972 16.165 17.203 16.1465 17.1845C16.1284 17.1664 16.0016 17.1479 15.8652 17.1439C15.7288 17.1398 15.5992 17.1254 15.5771 17.1117C15.5554 17.0984 15.5208 16.8843 15.5002 16.6361C15.4689 16.2546 15.4471 16.1616 15.3598 16.0329C15.2632 15.8908 15.2592 15.8639 15.293 15.6257C15.3131 15.4852 15.3377 15.3573 15.3473 15.3416C15.357 15.3255 15.3691 15.2036 15.3739 15.0704C15.3888 14.6599 15.4009 14.6535 16.1911 14.6535H16.8587V14.2624L16.6474 14.237C16.5312 14.223 16.3151 14.2113 16.167 14.2113C16.0189 14.2109 15.8881 14.1952 15.8761 14.1759C15.8644 14.1566 15.7839 14.1296 15.6978 14.1159C15.6117 14.1022 15.5184 14.0632 15.4906 14.0298C15.429 13.9558 15.4608 13.6504 15.5349 13.6049C15.5735 13.5808 15.5703 13.5518 15.5196 13.4745C15.454 13.3743 15.45 13.2452 15.5083 13.114C15.526 13.0737 15.5212 13.0206 15.497 12.9913C15.4552 12.941 15.4829 12.6174 15.5518 12.3491C15.5678 12.2855 15.5594 12.1877 15.532 12.1213C15.495 12.032 15.4946 11.9845 15.5312 11.9165C15.594 11.799 15.5449 11.193 15.4725 11.193C15.4451 11.193 15.3908 11.1576 15.3514 11.1145C15.289 11.0453 15.2862 11.0123 15.328 10.8373C15.3679 10.6715 15.3884 10.6421 15.4532 10.659C15.4958 10.6703 15.5308 10.6953 15.5308 10.715C15.5308 10.7592 17.7717 10.7625 17.7991 10.7182C17.8099 10.7009 17.8087 10.6104 17.7963 10.5178L17.7737 10.3492L15.5944 10.3279L15.5888 10.1689C15.586 10.0816 15.5626 10.0032 15.5369 9.99471C15.5111 9.98585 15.5002 9.96252 15.5127 9.942C15.5252 9.92188 15.4846 9.90337 15.4226 9.90055L15.3095 9.89572L15.4302 9.86836C15.5767 9.83536 15.1373 9.80438 14.4351 9.7915C16.4036 9.79673 19.3116 9.82369 19.4464 9.84743C19.5688 9.86916 19.5941 9.88767 19.5708 9.94039C19.5547 9.9766 19.537 10.2458 19.5309 10.5391C19.5249 10.8321 19.5084 11.1085 19.4943 11.1528C19.4682 11.2353 19.3937 11.265 19.3937 11.193C19.3937 11.1709 19.3128 11.1528 19.2143 11.1528C19.0835 11.1528 19.0131 11.1757 18.9559 11.2377C18.9125 11.2839 18.8581 11.3109 18.8356 11.2968C18.7757 11.2598 18.6912 11.432 18.7435 11.4843C18.772 11.5129 18.77 11.5427 18.7374 11.5793C18.7097 11.6103 18.6875 11.6352 18.6694 11.6566V11.3137H17.3818V11.7161H18.624C18.599 11.7576 18.6183 11.7692 18.6666 11.795C18.7097 11.8179 18.7821 11.8368 18.8276 11.8368C18.9265 11.8368 18.941 11.962 18.8525 12.0505C18.764 12.139 18.8163 12.1587 19.1418 12.1587C19.3917 12.1587 19.4931 12.1768 19.5321 12.2794H18.3475V12.4537C18.3475 12.5498 18.3596 12.6404 18.3745 12.6549C18.389 12.6698 18.6606 12.6818 18.9781 12.6818H19.4601C19.3571 12.6818 19.3446 12.7716 19.4219 12.9615C19.4436 13.0158 19.4557 13.1108 19.4488 13.1727C19.438 13.2645 19.4513 13.2854 19.5201 13.2854H17.422V13.6475H19.5547V13.2874C19.6001 13.2959 19.5981 13.3361 19.5752 13.5168C19.5587 13.6439 19.547 13.92 19.5494 14.1304C19.5498 14.1682 19.5494 14.2089 19.5486 14.2511H19.273V14.6535H19.5261C19.5213 14.7038 19.5156 14.7489 19.51 14.7855C19.4726 15.0201 19.4758 15.0724 19.5329 15.1597C19.5752 15.2241 19.5949 15.3227 19.5873 15.4301L19.5748 15.5991L19.5547 15.6007V15.2168H17.3818V15.6192H19.3293L19.2931 15.622L19.0115 15.6454L19.2392 15.6522L19.4674 15.6595L19.4899 15.911C19.4979 16.0003 19.5096 16.123 19.5209 16.2329C19.4999 16.2228 19.467 16.2228 19.4138 16.2228C19.2738 16.2228 19.273 16.2236 19.273 16.4039C19.273 16.5841 19.2738 16.585 19.4138 16.585C19.4967 16.585 19.5305 16.5846 19.5446 16.5471C19.5434 16.595 19.5374 16.6252 19.5269 16.6252C19.5072 16.6252 19.4871 16.6815 19.4818 16.7503C19.4766 16.8191 19.4537 16.9101 19.4311 16.9523C19.4086 16.9946 19.4002 17.0453 19.4122 17.0654C19.4243 17.0851 19.4118 17.1105 19.3841 17.1217C19.3563 17.1326 19.3833 17.1435 19.444 17.1451C19.5032 17.1467 19.5309 17.1499 19.5434 17.1885H18.7097V17.3628C18.7097 17.4589 18.7217 17.5495 18.7366 17.564C18.7511 17.5788 18.9414 17.5909 19.1591 17.5909H19.4903C19.4774 17.5925 19.4621 17.5933 19.444 17.5937C19.3458 17.5961 19.3426 17.6006 19.4138 17.6312C19.4581 17.6501 19.4722 17.667 19.4452 17.6686C19.4171 17.6702 19.407 17.6988 19.4211 17.7358C19.4348 17.7712 19.4203 17.8166 19.3897 17.8364C19.3418 17.8669 19.3418 17.8782 19.3889 17.9084C19.4195 17.9281 19.4319 17.9643 19.4167 17.9889C19.4014 18.0134 19.4126 18.0339 19.4416 18.0343C19.4798 18.0347 19.4778 18.0456 19.434 18.0738C19.3853 18.1052 19.3909 18.1128 19.4641 18.1132C19.5052 18.1136 19.5277 18.1172 19.5402 18.1543H19.2328V18.5566H19.5531C19.545 18.8359 19.5032 18.93 19.378 18.9968C19.2332 19.0745 19.2464 19.12 19.4138 19.12H17.3818V19.5224H19.5144C19.4923 19.5224 19.4742 19.6089 19.4742 19.7147C19.4742 19.8205 19.4476 19.9449 19.415 19.9911C19.3672 20.0595 19.3627 20.0736 19.4525 20.0905C19.3072 20.076 19.273 20.1267 19.273 20.3026C19.273 20.408 19.2935 20.4897 19.3233 20.5018ZM20.5832 20.3658C20.3699 20.2591 20.2556 20.1456 20.1578 19.9441C20.1092 19.8435 20.0894 19.7855 20.0838 18.7132L20.18 18.6765C20.2444 18.6524 20.2745 18.6387 20.3011 18.644C20.3309 18.65 20.3554 18.6798 20.4166 18.7454C20.526 18.8637 20.5349 18.8552 20.5779 18.5937C20.5912 18.5148 20.6278 18.415 20.6596 18.3723C20.7147 18.2983 20.7192 18.3003 20.7606 18.4174C20.7872 18.4927 20.8479 18.5562 20.9175 18.5828C20.9948 18.6118 21.0387 18.6629 21.0552 18.7417C21.095 18.9349 21.4016 19.3119 21.5944 19.4053C21.6893 19.4515 21.7774 19.5055 21.7899 19.526C21.8024 19.5461 21.8523 19.563 21.901 19.563C21.9493 19.5634 22.0615 19.627 22.15 19.7038C22.303 19.8366 22.3074 19.8467 22.2362 19.9022C22.1947 19.934 22.0591 19.9714 21.9344 19.9855C21.8096 19.9992 21.6125 20.0286 21.4962 20.0511C21.1626 20.1147 20.8833 20.0402 20.7011 19.8386C20.5425 19.6628 20.458 19.658 20.4166 19.8225C20.3687 20.0137 20.4295 20.1259 20.6282 20.2137C20.7759 20.2792 20.86 20.2905 21.0395 20.27C21.1566 20.2563 21.2246 20.2483 21.293 20.2466C21.3903 20.2438 21.4877 20.2539 21.73 20.2784C21.9191 20.2973 22.0977 20.3271 22.1263 20.3448C22.1549 20.3625 22.2716 20.3907 22.3854 20.4076C22.4993 20.4245 23.2989 20.4358 24.162 20.433L25.7313 20.4277L23.2365 20.4362C20.825 20.4446 20.7365 20.4422 20.5832 20.3658ZM15.893 18.1543V18.5566H17.8244V18.1543H15.893ZM16.6273 16.5966C16.6772 16.6063 16.742 16.6075 16.7714 16.5994C16.8008 16.5914 17.0498 16.585 17.3247 16.585H17.8244L17.824 16.2027L17.3717 16.2063C17.1227 16.2083 16.8329 16.2127 16.7279 16.2164L16.5368 16.2228V16.4011C16.5368 16.554 16.5497 16.5817 16.6273 16.5966ZM20.9485 21.6035C20.8918 21.562 20.8805 21.5025 20.8906 21.2916L20.9027 21.0313L21.097 21.0188C21.2036 21.012 21.3123 21.0241 21.3384 21.0454C21.3678 21.0699 21.3807 21.1745 21.3722 21.3242C21.359 21.5628 21.3582 21.5641 21.2065 21.6095C21.0918 21.6437 21.0523 21.657 21.0197 21.6482C20.9992 21.6421 20.9811 21.6276 20.9485 21.6035ZM16.6821 17.539C16.7215 17.5676 16.8551 17.5909 16.9794 17.5909C17.2663 17.5909 17.352 17.5322 17.3347 17.3479L17.3214 17.2086H16.6374L16.6241 17.3479C16.6149 17.4453 16.6322 17.5024 16.6821 17.539ZM18.8569 18.5341C18.8855 18.4597 18.8099 18.275 18.7507 18.275C18.7282 18.275 18.7097 18.3474 18.7097 18.4359V18.1543H18.3073V18.5566H18.7097V18.4359C18.7097 18.5538 18.7262 18.5969 18.7712 18.5969C18.805 18.5969 18.8437 18.5687 18.8569 18.5341ZM18.3978 16.5994C18.4256 16.6111 18.5117 16.6171 18.5889 16.6127C18.7294 16.6051 18.7298 16.6043 18.7419 16.3938L18.7539 16.1826H18.3475V16.3805C18.3475 16.5005 18.3672 16.5866 18.3978 16.5994ZM18.3475 10.348V10.7504H18.7499V10.348H18.3475ZM17.422 14.2511V14.6535H17.8244V14.2511H17.422ZM18.3073 14.2511V14.6535H18.7097V14.2511H18.3073ZM15.5308 15.2168V15.6192H15.9332V15.2168H15.5308ZM20.9228 21.0514V21.4538H21.3252V21.0514H20.9228ZM17.8514 17.564C17.8659 17.5788 17.9564 17.5909 18.0526 17.5909H18.2268V17.1885H17.8244V17.3628C17.8244 17.4589 17.8365 17.5495 17.8514 17.564ZM16.532 19.4218C16.5364 19.5151 16.5513 19.5224 16.74 19.5224H16.9436L16.9311 19.3312L16.9191 19.1401L16.7279 19.128C16.5408 19.1159 16.5267 19.1252 16.5267 19.2608C16.5267 19.2942 16.5291 19.3662 16.532 19.4218ZM18.3644 20.4744C18.3805 20.5158 18.4368 20.5295 18.5584 20.5207L18.7298 20.5082V20.1058H18.3676L18.3548 20.2611C18.3479 20.3464 18.3523 20.4422 18.3644 20.4744ZM17.8791 12.5812C17.892 12.5482 17.8872 12.4802 17.8691 12.4307C17.8425 12.3587 17.8349 12.3575 17.8224 12.4549C17.8204 12.4062 17.8095 12.3587 17.7894 12.3269C17.7685 12.2935 17.6973 12.2786 17.5991 12.2867C17.4538 12.2988 17.4413 12.3096 17.4293 12.4332C17.4224 12.5064 17.4381 12.5925 17.4643 12.6243C17.5226 12.6943 17.7097 12.6999 17.7761 12.6335C17.793 12.6166 17.8055 12.5885 17.8136 12.5555C17.8119 12.6545 17.8429 12.6762 17.8791 12.5812ZM16.5529 11.6598C16.5794 11.7294 16.8237 11.735 16.8909 11.6678C16.9174 11.6413 16.9392 11.56 16.9392 11.4876C16.9392 11.3817 16.9199 11.3507 16.8426 11.3314C16.647 11.2823 16.5581 11.3234 16.544 11.4686C16.5368 11.5427 16.5408 11.6284 16.5529 11.6598ZM16.5637 13.6206C16.5782 13.6355 16.6579 13.6475 16.7404 13.6475C16.903 13.6475 16.9392 13.6029 16.9392 13.4029C16.9392 13.2886 16.9335 13.2854 16.738 13.2854H16.5368V13.4395C16.5368 13.5244 16.5489 13.6061 16.5637 13.6206ZM16.4724 15.5629C16.501 15.6373 16.7541 15.6365 16.8164 15.5617C16.8426 15.5299 16.8583 15.4438 16.8515 15.3706C16.839 15.241 16.8329 15.237 16.6575 15.237C16.4817 15.237 16.476 15.2406 16.4636 15.3718C16.4563 15.4458 16.4603 15.5315 16.4724 15.5629ZM17.4301 20.3372L17.4176 20.5283L17.5508 20.5275C17.7403 20.5267 17.7934 20.4784 17.7995 20.3014L17.8043 20.1461H17.4422L17.4301 20.3372ZM19.2126 14.0902C19.199 14.068 19.2114 14.0483 19.2404 14.0467C19.2802 14.0443 19.281 14.0387 19.2432 14.0234C19.2046 14.0077 19.2054 13.9799 19.2481 13.8958C19.3394 13.7143 19.2988 13.6874 18.9378 13.691C18.7567 13.6926 18.632 13.7035 18.6598 13.7143C18.6875 13.7256 18.7012 13.7494 18.6899 13.7675C18.6791 13.7852 18.7197 13.8117 18.7805 13.8258C19.0263 13.8833 19.112 13.9373 19.112 14.0346C19.112 14.0946 19.1354 14.1304 19.1748 14.1304C19.2094 14.1304 19.2263 14.1123 19.2126 14.0902ZM15.5538 21.3906C15.6226 21.4594 15.664 21.4655 15.8045 21.428C15.8849 21.4063 15.8954 21.3814 15.8849 21.2373C15.8737 21.0804 15.8652 21.0707 15.7336 21.0583C15.5208 21.0381 15.4085 21.2454 15.5538 21.3906ZM15.7485 16.4844C15.7694 16.5672 15.798 16.585 15.9131 16.585C16.0266 16.585 16.0567 16.5668 16.0765 16.4884C16.0897 16.4353 16.095 16.3496 16.0873 16.2972C16.0765 16.22 16.0463 16.2003 15.9244 16.1902C15.7932 16.1793 15.7719 16.1902 15.7493 16.2808C15.7348 16.3375 15.7348 16.4288 15.7485 16.4844ZM19.1974 20.8804C19.1998 20.8526 19.1998 20.8164 19.1974 20.7999C19.1945 20.7834 19.209 20.7697 19.2291 20.7697C19.2718 20.7697 19.2633 20.6663 19.2171 20.6201C19.1998 20.6028 19.1901 20.6068 19.1957 20.6289C19.2147 20.7078 19.1422 20.81 19.0674 20.81C19.0255 20.81 18.9913 20.8369 18.9913 20.8703C18.9913 20.9444 19.1905 20.954 19.1974 20.8804ZM21.7613 21.4409C21.6849 21.3826 21.6821 21.1721 21.7577 21.1721C21.7855 21.1721 21.808 21.144 21.808 21.1098V21.4538H22.0752C21.9983 21.4538 21.911 21.4622 21.8817 21.4727C21.8523 21.4832 21.798 21.4687 21.7613 21.4409ZM30.7381 19.7964C30.7365 19.7674 30.7196 19.7799 30.7007 19.8241C30.6737 19.8865 30.6653 19.866 30.6633 19.7336C30.6617 19.6395 30.677 19.5626 30.6967 19.5626C30.751 19.5626 30.8242 19.7976 30.7788 19.8258C30.7578 19.8386 30.7397 19.8254 30.7381 19.7964ZM27.979 22.0847C28.024 22.164 27.9476 22.1761 27.8554 22.1045C27.7838 22.0489 27.7782 22.0288 27.8229 21.9886C27.878 21.9391 27.9057 21.9564 27.979 22.0847ZM19.8243 21.6952C19.8742 21.6952 19.877 21.6836 19.8379 21.6365C19.7989 21.5898 19.774 21.5878 19.712 21.6264C19.6195 21.6844 19.6094 21.754 19.6987 21.7198C19.7337 21.7061 19.7905 21.6952 19.8243 21.6952ZM22.1054 19.5457C22.1323 19.6153 22.0833 19.6205 22.0173 19.5545C21.9907 19.528 21.969 19.4922 21.969 19.4753C21.969 19.4254 22.0816 19.4833 22.1054 19.5457ZM13.0111 9.79311C12.766 9.80036 12.6055 9.81243 12.5661 9.82772C12.4985 9.85307 12.4397 9.88767 12.3906 9.92952C12.4606 9.86715 12.5496 9.82168 12.6522 9.80237C12.6751 9.79794 12.8039 9.79512 13.0111 9.79311ZM12.6465 21.455C12.6248 21.6111 12.6916 21.7858 12.8614 21.9367C12.6904 21.7866 12.624 21.6115 12.6465 21.455Z" fill="#273976"/>
<path d="M15.5098 10.6538L15.519 10.6916C15.505 10.6784 15.4816 10.6659 15.4547 10.659C15.3899 10.6421 15.3694 10.6715 15.3295 10.8373C15.2877 11.0123 15.2905 11.0453 15.3529 11.1145C15.3923 11.1576 15.4466 11.193 15.474 11.193C15.5464 11.193 15.5955 11.799 15.5327 11.9165C15.4961 11.9845 15.4965 12.032 15.5335 12.1213C15.5609 12.1877 15.5693 12.2855 15.5532 12.3491C15.4844 12.6175 15.4567 12.941 15.4985 12.9913C15.5227 13.0206 15.5275 13.0738 15.5098 13.114C15.4514 13.2452 15.4555 13.3743 15.5211 13.4745C15.5718 13.5518 15.575 13.5808 15.5363 13.6049C15.4623 13.6504 15.4305 13.9558 15.4921 14.0298C15.5198 14.0632 15.6132 14.1022 15.6993 14.1159C15.7854 14.1296 15.8659 14.1566 15.8776 14.1759C15.8896 14.1952 16.0204 14.2109 16.1685 14.2113C16.3166 14.2113 16.5326 14.223 16.6489 14.237L16.7668 14.2511H14.6068V14.6535H16.1926C15.4024 14.6535 15.3903 14.66 15.3754 15.0704C15.3706 15.2036 15.3585 15.3255 15.3488 15.3416C15.3392 15.3573 15.3146 15.4852 15.2945 15.6257C15.2607 15.8639 15.2647 15.8908 15.3613 16.0329C15.4486 16.1617 15.4704 16.2546 15.5017 16.6361C15.5223 16.8843 15.5569 17.0984 15.5786 17.1117C15.6007 17.1254 15.7303 17.1398 15.8667 17.1439C16.0031 17.1479 16.1299 17.1664 16.148 17.1845C16.1665 17.203 16.1757 17.2972 16.1685 17.3942L16.156 17.5708L16.1359 17.572V17.1885H15.7335V17.5539C15.7259 17.5438 15.7202 17.5314 15.715 17.5161C15.7013 17.473 15.6647 17.4276 15.6337 17.4159C15.5649 17.3893 15.4309 17.8054 15.4756 17.9076C15.4913 17.9438 15.4997 18.238 15.4945 18.5611C15.4873 18.996 15.4985 19.1731 15.5388 19.2403C15.5814 19.3123 15.5822 19.3357 15.5424 19.3497C15.4744 19.3743 15.4792 19.4439 15.5593 19.6044C15.5963 19.6785 15.6092 19.7449 15.5879 19.7521C15.5649 19.7598 15.5605 19.8913 15.577 20.0853C15.5923 20.2615 15.5907 20.4688 15.5734 20.5456C15.5561 20.6225 15.5512 20.6945 15.5625 20.7062C15.5742 20.7174 15.552 20.775 15.5134 20.8341C15.4197 20.9766 15.3834 21.3866 15.4531 21.5162C15.482 21.5705 15.5388 21.6148 15.5794 21.6148C15.6204 21.6148 15.6559 21.6461 15.6591 21.6852C15.6703 21.8151 15.6752 21.8357 15.7029 21.8799C15.7717 21.9898 15.4293 22.0284 14.2201 22.0469L13.009 22.065L12.8673 21.9407C12.4617 21.5846 12.6335 21.0945 13.1864 21.0309C13.6697 20.9754 13.8632 20.8812 13.9872 20.6414C14.165 20.2974 14.0021 19.8885 13.6109 19.6962C13.3856 19.5855 13.3627 19.5827 12.7156 19.5827C12.3334 19.5827 11.9833 19.6105 11.6469 19.6733C11.6574 19.6712 11.6682 19.6688 11.6791 19.6668C11.8489 19.6314 12.0328 19.6028 12.0879 19.6028C12.1426 19.6028 12.199 19.5847 12.2127 19.5626C12.2263 19.5405 12.2227 19.5224 12.205 19.5224C12.1628 19.522 12.1652 19.0777 12.2082 18.8182C12.2267 18.7075 12.3008 18.5043 12.3732 18.3663C12.4452 18.2283 12.4887 18.1253 12.469 18.1374C12.4497 18.149 12.434 18.1398 12.434 18.1164C12.434 18.0931 12.3861 18.0738 12.3277 18.0738C12.2267 18.0738 12.0316 17.914 12.0316 17.8307C12.0316 17.8058 11.9097 17.7318 11.7435 17.6493C12.4336 17.9539 12.603 18.0062 12.8621 18.0239C13.1084 18.0408 13.1804 18.0291 13.3683 17.943C13.9208 17.6903 14.1948 17.1085 14.0294 16.5391C13.858 15.9492 13.3816 15.6474 12.4513 15.54C12.2718 15.519 12.0895 15.4905 11.9205 15.4575C11.9865 15.4655 12.0183 15.4599 12.0227 15.4418C12.0288 15.4164 12.0742 15.3782 12.1233 15.3565C12.312 15.274 12.3656 15.0547 12.3788 14.3115C12.3853 13.9353 12.3937 13.623 12.3973 13.6174C12.4191 13.5836 12.4142 13.5007 12.3881 13.4649C12.3462 13.4073 11.632 13.4975 11.5902 13.5651C11.5709 13.596 11.5254 13.6053 11.4727 13.5884C11.399 13.5651 11.3029 13.5816 11.2051 13.6294C11.3568 13.5526 11.5483 13.5107 11.8437 13.4826C12.277 13.4407 13.0198 13.2544 13.3466 13.1059C13.7964 12.9007 14.1179 12.4686 14.1542 12.0203C14.1936 11.529 14.0013 11.1532 13.5977 10.9339C13.4138 10.8337 13.3301 10.8156 12.98 10.7995C12.706 10.7874 12.541 10.76 12.4316 10.6945C12.4867 10.7138 12.504 10.7049 12.5861 10.6474C12.6352 10.6132 12.6754 10.5621 12.6754 10.5339C12.6754 10.443 12.4718 10.2989 12.3704 10.3182C12.3185 10.3283 12.2674 10.3162 12.2573 10.2917C12.2473 10.2675 12.2376 10.2889 12.236 10.34C12.234 10.3947 12.2573 10.4715 12.2899 10.5395C12.2786 10.5186 12.2686 10.4965 12.2589 10.4723C12.1527 10.2064 12.2823 9.93556 12.5676 9.82772C12.6364 9.80157 13.0689 9.78467 13.6777 9.78467C14.7903 9.78467 15.6261 9.8245 15.4317 9.86836L15.311 9.89573L15.4241 9.90055C15.486 9.90337 15.5267 9.92188 15.5142 9.942C15.5017 9.96252 15.5126 9.98586 15.5384 9.99471C15.5641 10.0032 15.5874 10.0816 15.5903 10.1689L15.5959 10.3279L16.6856 10.3388L17.6448 10.348L16.6437 10.3573L15.5122 10.3681L15.4989 10.4627C15.4913 10.515 15.4965 10.6007 15.5098 10.6538ZM28.3281 23.0988C27.739 22.9406 27.0896 22.541 26.7725 22.1411C26.554 21.8658 26.2973 21.3544 26.216 21.0329C26.1384 20.7271 26.1384 20.0616 26.2156 19.7336C26.3782 19.0455 26.8643 18.4001 27.5157 18.0078C27.9141 17.768 28.3185 17.6617 28.8512 17.6569C29.3751 17.6525 29.6266 17.7024 30.0383 17.8911C30.6113 18.1543 31.0981 18.6423 31.3718 19.2278C31.5774 19.6676 31.639 19.9879 31.6176 20.5082C31.5967 21.0172 31.5186 21.2876 31.2543 21.7648C30.9943 22.2352 30.6032 22.6095 30.1356 22.8364C29.9272 22.9374 29.6391 23.0476 29.495 23.0814C29.2077 23.1486 28.5507 23.1583 28.3281 23.0988ZM28.4891 22.5982C28.8299 22.6718 28.9732 22.6718 29.314 22.6006C30.1775 22.4191 30.868 21.7496 31.08 20.8881C31.1657 20.5396 31.1617 20.2458 31.0672 19.8753C30.9477 19.4089 30.7722 19.0995 30.4427 18.7743C30.0069 18.3442 29.5361 18.1539 28.9132 18.1547C28.2372 18.1563 27.6904 18.3844 27.2666 18.8419C26.42 19.7566 26.4438 21.0985 27.3226 21.9773C27.5958 22.2505 28.0871 22.5121 28.4891 22.5982ZM28.7816 20.307C28.7784 20.4334 28.3784 21.663 28.3704 21.5717C28.3692 21.5588 28.2139 21.1069 28.0251 20.5678C27.8364 20.0282 27.6904 19.5646 27.7008 19.5372C27.7113 19.5103 27.7612 19.4825 27.8123 19.4753C27.863 19.468 27.9109 19.4302 27.9181 19.3916C27.9302 19.3288 27.8924 19.3212 27.5664 19.3212C27.3564 19.3212 27.2015 19.3047 27.2015 19.2821C27.2015 19.2093 27.6622 18.7727 27.8614 18.6568C28.1954 18.4621 28.4593 18.3957 28.8991 18.3957C29.1925 18.3957 29.3619 18.4174 29.5466 18.4786C29.8105 18.5659 30.1787 18.7888 30.1791 18.8608C30.1791 18.8846 30.1256 18.9433 30.0604 18.9916C29.8588 19.1405 29.8592 19.299 30.0628 19.7075C30.2853 20.1545 30.2877 20.3006 30.0829 20.9508C29.9992 21.2164 29.9163 21.4486 29.8986 21.4671C29.8648 21.5029 29.7574 21.2377 29.5015 20.4881C29.4146 20.2334 29.3051 19.9175 29.2584 19.7851C29.2114 19.6531 29.1731 19.532 29.1731 19.5163C29.1731 19.5002 29.2319 19.4817 29.3035 19.4745C29.3896 19.4664 29.4387 19.4379 29.4476 19.3916C29.4596 19.3272 29.411 19.3212 28.8714 19.3212C28.3318 19.3212 28.2831 19.3272 28.2955 19.3916C28.3032 19.4338 28.3523 19.4672 28.4171 19.4745C28.512 19.4853 28.5414 19.528 28.6557 19.8165C28.7325 20.0117 28.784 20.2116 28.7816 20.307ZM29.2947 22.3753C28.9591 22.4473 28.3281 22.3974 28.3281 22.2988C28.3281 22.2795 28.4549 21.8964 28.6098 21.4482C28.7647 20.9995 28.8915 20.6237 28.8915 20.6128C28.8915 20.5408 28.9828 20.7122 29.0713 20.9508C29.4568 21.9886 29.5389 22.2308 29.5208 22.2783C29.5099 22.3073 29.4077 22.3511 29.2947 22.3753ZM27.5282 20.8716C27.7077 21.358 27.859 21.7866 27.9294 22.0039C27.8903 21.952 27.8646 21.9528 27.8244 21.9886C27.7797 22.0288 27.7853 22.0489 27.8569 22.1045C27.904 22.1411 27.9467 22.1556 27.9716 22.1511C27.9716 22.1531 27.9716 22.1544 27.9708 22.1548C27.9157 22.189 27.5069 21.8711 27.3334 21.659C26.9468 21.1866 26.7967 20.5629 26.9246 19.9569C26.9492 19.8394 26.9854 19.724 27.0047 19.6998C27.024 19.6757 27.028 19.6439 27.0131 19.6294C26.9987 19.6149 27.0035 19.6028 27.0236 19.6032C27.0441 19.6036 27.2711 20.1742 27.5282 20.8716ZM30.7396 19.7964C30.7412 19.8254 30.7593 19.8386 30.7803 19.8258C30.8012 19.8129 30.7968 19.7557 30.7811 19.6982C30.829 19.8435 30.878 20.0801 30.8921 20.2724C30.9328 20.8233 30.728 21.3934 30.3477 21.789C30.266 21.8739 30.1501 21.9689 30.0906 22.0002C29.9638 22.067 29.9377 22.0707 29.9377 22.0216C29.9377 21.952 30.1095 21.4272 30.3642 20.7199C30.5054 20.3271 30.6326 19.9062 30.6471 19.7843C30.6523 19.7388 30.6591 19.6966 30.6672 19.6616C30.6652 19.6833 30.6644 19.7079 30.6648 19.7336C30.6668 19.866 30.6752 19.8865 30.7022 19.8241C30.7211 19.7799 30.738 19.7674 30.7396 19.7964ZM12.772 14.5976C12.7865 14.635 12.8601 14.6535 12.9961 14.6535H13.1985V14.4531C13.1985 14.2757 13.1876 14.2499 13.1027 14.2286C13.05 14.2153 12.9551 14.2105 12.8915 14.2177C12.7893 14.2294 12.7744 14.2487 12.7631 14.3863C12.7563 14.4716 12.7603 14.5666 12.772 14.5976ZM14.6068 21.0514V21.4538H15.0092V21.0514H14.6068ZM14.8644 16.5286C14.8789 16.5668 14.9521 16.585 15.0905 16.585H15.2953L15.2828 16.3938L15.2708 16.2027H15.0696C14.8708 16.2027 14.8684 16.2043 14.8555 16.3375C14.8483 16.4115 14.8523 16.4972 14.8644 16.5286ZM14.6068 10.348V10.7548L14.798 10.7423L14.9891 10.7303L15.0012 10.5391L15.0136 10.348H14.6068ZM14.9155 17.564C14.9489 17.5978 15.1424 17.599 15.2273 17.5664C15.272 17.5495 15.2909 17.4895 15.2909 17.3652V17.1885H14.8885V17.3628C14.8885 17.4589 14.9006 17.5495 14.9155 17.564ZM13.7196 14.5477C13.7538 14.6378 13.784 14.6535 13.9212 14.6535C14.058 14.6535 14.0858 14.639 14.1067 14.5557C14.1594 14.3457 14.0306 14.2153 13.8218 14.2676C13.7059 14.297 13.6657 14.406 13.7196 14.5477ZM15.75 16.4844C15.7363 16.4288 15.7363 16.3375 15.7508 16.2808C15.7734 16.1902 15.7947 16.1794 15.9259 16.1902C16.0478 16.2003 16.078 16.22 16.0888 16.2973C16.0965 16.3496 16.0912 16.4353 16.078 16.4884C16.0582 16.5668 16.0281 16.585 15.9146 16.585C15.7995 16.585 15.7709 16.5673 15.75 16.4844ZM12.5193 9.94965C12.5921 9.99552 12.681 9.99391 12.7559 9.94562C12.8094 9.91102 12.8094 9.90579 12.7559 9.90055C12.7225 9.89734 12.7591 9.88164 12.8364 9.86514C12.9623 9.83859 12.953 9.83497 12.7482 9.83014C12.5197 9.82491 12.4118 9.88124 12.5193 9.94965ZM11.6646 18.7144C11.6634 18.6963 11.6618 18.6765 11.6594 18.6544C11.6244 18.3466 11.3854 18.1386 11.0409 18.036C11.0844 18.0472 11.1262 18.0597 11.1665 18.0742C11.3214 18.1285 11.4594 18.1885 11.4727 18.2074C11.4864 18.2263 11.5133 18.2375 11.533 18.2327C11.6147 18.2118 11.6948 18.4806 11.6682 18.687C11.667 18.6963 11.6658 18.7055 11.6646 18.7144ZM9.04629 18.345C9.10786 18.31 9.17144 18.2758 9.23783 18.2428C9.42534 18.149 9.64343 18.0786 9.87038 18.0327C9.59273 18.0951 9.31026 18.1985 9.04629 18.345ZM11.4618 15.3464C11.3676 15.3179 11.2904 15.2893 11.2365 15.2615C11.1475 15.2156 11.0707 15.1617 11.0063 15.0998C11.1174 15.2016 11.2675 15.2816 11.4618 15.3464ZM8.29907 20.0861C7.9671 19.8837 7.93089 19.5449 8.12966 19.188C7.93008 19.5493 7.97394 19.8877 8.29907 20.0861ZM10.8176 13.9948C10.8558 13.9236 10.9117 13.858 10.9918 13.782C11.0192 13.7562 11.0469 13.7325 11.0755 13.7107C11.0417 13.7369 11.0087 13.7663 10.9777 13.7993C10.9037 13.8761 10.8526 13.9357 10.8176 13.9948ZM17.7977 10.5178C17.8102 10.6104 17.8114 10.7009 17.8006 10.7182C17.7897 10.7363 17.4203 10.7464 16.9825 10.7492C17.4461 10.7452 17.7917 10.7327 17.8006 10.7182C17.8114 10.7009 17.8102 10.6108 17.7977 10.5178ZM10.9182 17.3595C10.7733 17.3443 10.6401 17.3535 10.5476 17.3889C10.6454 17.3499 10.7717 17.3406 10.9182 17.3595ZM11.4578 19.0206C11.5141 18.9912 11.5471 18.9643 11.5821 18.9292C11.5954 18.916 11.6067 18.9039 11.6163 18.8918C11.5882 18.9397 11.5415 18.9787 11.4578 19.0206ZM10.5037 17.409C10.5033 17.4094 10.5029 17.4094 10.5025 17.4098C10.4357 17.4481 10.3609 17.4674 10.2945 17.4694C10.3573 17.4658 10.4305 17.4461 10.5037 17.409ZM30.7477 19.6125C30.7336 19.5863 30.7179 19.567 30.7034 19.5634C30.7042 19.563 30.7054 19.5626 30.7062 19.5626C30.7183 19.5626 30.7324 19.5807 30.7477 19.6125ZM11.2007 19.1232C11.0667 19.1699 10.8916 19.2254 10.6623 19.2982C10.9045 19.2214 11.0759 19.1663 11.2007 19.1232Z" fill="#2D6A98"/>
<path d="M2.00322 22.7193C1.42258 22.5785 0.797675 22.0775 0.566304 21.5673C0.271759 20.9175 0.303145 20.1135 0.645171 19.5453C0.812563 19.2669 1.18235 18.9128 1.44511 18.78C1.84226 18.5784 2.02977 18.5567 3.35563 18.5567H4.58733L4.58974 18.6472C4.59095 18.6971 4.59055 19.2174 4.58853 19.8041C4.58411 21.0764 4.53381 21.3754 4.25415 21.7826C3.71375 22.5705 2.85788 22.9266 2.00322 22.7193ZM6.51877 18.1185C6.13973 17.9957 5.88099 17.8388 5.59651 17.5592C4.75955 16.7355 4.74104 15.4676 5.55305 14.5996C6.44835 13.6428 7.98425 13.7208 8.77373 14.7638C9.01114 15.0777 9.11495 15.3404 9.18054 15.7951C9.2236 16.0909 9.22118 16.179 9.16243 16.449C9.05781 16.9314 8.90209 17.2204 8.56409 17.5616C8.24822 17.8803 7.99592 18.0279 7.5867 18.133C7.26882 18.2146 6.79601 18.2082 6.51877 18.1185ZM9.47509 19.8053C9.90081 19.5932 10.3885 19.3848 10.6621 19.2983C11.619 18.9953 11.6294 18.9892 11.6681 18.687C11.6946 18.4806 11.6146 18.2118 11.5329 18.2328C11.5132 18.2376 11.4862 18.2263 11.4725 18.2074C11.4592 18.1885 11.3212 18.1285 11.1663 18.0742C10.6376 17.8887 9.80142 17.9615 9.23768 18.2428C8.5327 18.5941 8.09088 19.0778 8.01846 19.4858C8.06996 19.1695 8.34962 18.8049 8.83248 18.4762C9.0727 18.3128 9.18617 18.2106 9.09363 18.2416C9.01798 18.267 8.94434 18.1933 8.91054 18.0585C8.89606 18.0006 8.86467 17.9531 8.84053 17.9531C8.81679 17.9531 8.84938 17.8988 8.91296 17.8324C8.97653 17.766 9.06063 17.7117 9.09966 17.7117C9.18859 17.7117 9.36765 17.4151 9.3922 17.2264C9.43726 16.884 9.65737 16.6035 9.75072 16.7701C9.78814 16.8373 9.86661 16.9153 10.0589 17.0779C10.1217 17.131 10.1531 17.127 10.3458 17.0437C10.407 17.0176 10.4662 16.9962 10.5257 16.9801C10.4674 16.9978 10.4098 17.0212 10.3511 17.0506C10.1382 17.1564 10.0754 17.2489 10.1201 17.3898C10.1511 17.4871 10.3491 17.4976 10.5024 17.4099C10.6565 17.3218 10.9897 17.3366 11.2766 17.4449C11.6182 17.5732 12.0314 17.7849 12.0314 17.8308C12.0314 17.9141 12.2266 18.0738 12.3276 18.0738C12.3859 18.0738 12.4338 18.0931 12.4338 18.1165C12.4338 18.1398 12.4495 18.1491 12.4688 18.1374C12.4885 18.1253 12.4451 18.2283 12.3731 18.3663C12.3006 18.5044 12.2266 18.7076 12.2081 18.8182C12.165 19.0778 12.1626 19.522 12.2049 19.5224C12.2226 19.5224 12.2262 19.5405 12.2125 19.5626C12.1988 19.5848 12.1425 19.6029 12.0878 19.6029C12.0326 19.6029 11.8487 19.6314 11.6789 19.6669C10.743 19.86 10.0042 20.2229 8.94434 21.0108C8.91939 21.0293 8.89324 21.0482 8.86628 21.0671C8.91577 21.0265 8.95118 20.9915 8.96848 20.9637C8.99746 20.9175 9.00068 20.8937 8.97573 20.909C8.87151 20.9734 8.77574 20.8812 8.69285 20.637C8.57857 20.3006 8.52948 20.2185 8.37014 20.1252C8.57656 20.2225 8.76568 20.1586 9.47509 19.8053ZM11.6999 15.4137C11.0074 15.2491 10.7438 14.967 10.7438 14.3908C10.7438 14.0898 10.7748 14.0109 10.9776 13.7993C11.1361 13.6331 11.3397 13.5466 11.4725 13.5884C11.5252 13.6053 11.5707 13.5961 11.59 13.5651C11.6319 13.4975 12.3461 13.4074 12.3879 13.4649C12.4141 13.5007 12.4189 13.5836 12.3972 13.6174C12.3936 13.623 12.3851 13.9353 12.3787 14.3115C12.3654 15.0547 12.3119 15.274 12.1232 15.3565C12.0741 15.3782 12.0286 15.4165 12.0226 15.4418C12.0145 15.4744 11.9212 15.466 11.6999 15.4137ZM3.24739 21.2205C3.66064 21.6345 3.81113 21.7621 3.84895 21.7303C3.93868 21.6558 4.094 21.3593 4.1604 21.1347C4.2119 20.9617 4.22518 20.7239 4.22518 19.992V19.0673L3.46105 19.8282C3.04097 20.2463 2.69693 20.6064 2.69652 20.6285C2.69652 20.6503 2.94399 20.9167 3.24739 21.2205ZM1.87083 19.8423C2.18027 20.1533 2.44544 20.4032 2.45992 20.3976C2.47441 20.3919 2.8277 20.0523 3.24497 19.6431L4.00387 18.8987L3.1991 18.887C2.3203 18.8742 1.9827 18.912 1.67004 19.0572C1.49541 19.1389 1.39079 19.178 1.37349 19.2411C1.34854 19.3305 1.49823 19.4681 1.87083 19.8423ZM7.82773 16.6264C8.13635 16.9355 8.40314 17.1886 8.42044 17.1886C8.482 17.1886 8.69567 16.8027 8.77373 16.5504C8.90612 16.1214 8.86226 15.6724 8.64738 15.2571C8.54075 15.0515 8.49367 14.9541 8.43452 14.9461C8.3802 14.938 8.31542 15.004 8.18545 15.1288C8.05387 15.2547 7.79352 15.5167 7.60641 15.711L7.2668 16.0643L7.82773 16.6264ZM1.99195 22.3648C2.08812 22.3966 2.29897 22.4143 2.51746 22.4087C2.84702 22.4002 2.91059 22.3854 3.18381 22.2502C3.40512 22.1407 3.53228 22.0872 3.55038 22.0087C3.57372 21.9065 3.41035 21.7617 3.02769 21.3939L2.44262 20.8305L1.88612 21.4104C1.43465 21.8812 1.33808 22.0011 1.3763 22.0474C1.43505 22.1178 1.77668 22.294 1.99195 22.3648ZM1.00893 21.6591C1.05641 21.7254 1.10671 21.7741 1.12119 21.7677C1.13568 21.7609 1.39562 21.5013 1.69901 21.1903L2.25028 20.6245L1.10671 19.483L0.973517 19.6781C0.578778 20.2567 0.593264 21.0752 1.00893 21.6591ZM6.62943 17.7885C7.07165 17.8931 7.62895 17.7966 8.02369 17.5471L8.22045 17.4228L7.0632 16.2631L6.48779 16.8365L5.91278 17.4099L6.00412 17.4843C6.13691 17.593 6.45479 17.7475 6.62943 17.7885ZM6.46324 15.2692C6.77026 15.5718 7.04308 15.8197 7.06883 15.8201C7.1143 15.8205 8.13555 14.7686 8.1609 14.6954C8.16774 14.6757 8.10497 14.6133 8.02127 14.5562C7.57583 14.2536 6.84993 14.2013 6.35782 14.4363C6.21376 14.5051 6.05321 14.5968 6.0005 14.6403L5.90473 14.7191L6.46324 15.2692ZM5.55345 16.9773C5.62025 17.0936 5.68865 17.1886 5.70515 17.1886C5.72165 17.1886 5.98803 16.9351 6.29746 16.6252L6.85959 16.0619L6.29746 15.4986C5.98803 15.1887 5.72205 14.9352 5.70636 14.9352C5.69026 14.9352 5.63031 15.0153 5.57317 15.1131C5.21947 15.7166 5.21223 16.3874 5.55345 16.9773ZM16.4174 21.0506L20.4211 21.0716L20.4332 21.2627L20.4457 21.4538H16.4174V21.0506ZM14.6067 14.2512H16.86V14.6535H14.6067V14.2512ZM17.3831 15.2169H19.556V15.6193H17.3831V15.2169ZM17.3831 19.12H19.556V19.5224H17.3831V19.12ZM17.4234 13.2854H19.556V13.6476H17.4234V13.2854ZM17.3831 11.3138H18.6708V11.7161H17.3831V11.3138ZM16.6287 16.5967C16.551 16.5818 16.5381 16.554 16.5381 16.4011V16.2228L16.7293 16.2164C16.8343 16.2128 17.124 16.2084 17.3731 16.2063L17.8254 16.2027L17.8258 16.585H17.326C17.0512 16.585 16.8021 16.5914 16.7727 16.5995C16.7433 16.6075 16.6786 16.6063 16.6287 16.5967ZM18.3758 12.6549C18.3609 12.6404 18.3489 12.5499 18.3489 12.4537V12.2795H19.556V12.6819H18.9794C18.6619 12.6819 18.3903 12.6698 18.3758 12.6549ZM18.738 17.564C18.7231 17.5495 18.711 17.459 18.711 17.3628V17.1886H19.556V17.591H19.1605C18.9428 17.591 18.7525 17.5789 18.738 17.564ZM19.3246 20.5018C19.2949 20.4897 19.2743 20.408 19.2743 20.3026C19.2743 20.0986 19.3206 20.0628 19.5327 20.1026C19.6389 20.1223 19.6928 20.167 19.7701 20.2982C19.8252 20.3915 19.8618 20.4813 19.8518 20.4982C19.8312 20.5312 19.4051 20.5344 19.3246 20.5018ZM19.3045 11.7242L19.1134 11.7117V11.5371C19.1134 11.3415 19.1484 11.3138 19.3955 11.3138C19.5717 11.3138 19.6212 11.391 19.5761 11.5958C19.5629 11.6554 19.5552 11.6904 19.5339 11.7097C19.5033 11.7367 19.445 11.733 19.3045 11.7242ZM12.7718 14.5976C12.7601 14.5666 12.7561 14.4717 12.763 14.3864C12.7742 14.2487 12.7891 14.2294 12.8913 14.2178C12.9549 14.2105 13.0499 14.2154 13.1026 14.2286C13.1875 14.25 13.1983 14.2757 13.1983 14.4532V14.6535H12.9959C12.8599 14.6535 12.7863 14.635 12.7718 14.5976ZM18.3992 16.5995C18.3686 16.5866 18.3489 16.5005 18.3489 16.3806V16.1826H18.7553L18.7432 16.3939C18.7311 16.6043 18.7307 16.6051 18.5903 16.6128C18.513 16.6172 18.4269 16.6111 18.3992 16.5995ZM18.3489 10.348H18.7512V10.7504H18.3489V10.348ZM17.4234 14.2512H17.8258V14.6535H17.4234V14.2512ZM18.3086 14.2512H18.711V14.6535H18.3086V14.2512ZM15.7334 17.1886H16.1357V17.591H15.7334V17.1886ZM18.3086 18.1543H18.711V18.5567H18.3086V18.1543ZM14.6067 21.0515H15.0091V21.4538H14.6067V21.0515ZM20.9241 21.0515H21.3265V21.4538H20.9241V21.0515ZM17.8527 17.564C17.8378 17.5495 17.8258 17.459 17.8258 17.3628V17.1886H18.2281V17.591H18.0539C17.9577 17.591 17.8672 17.5789 17.8527 17.564ZM14.8642 16.5287C14.8521 16.4973 14.8481 16.4116 14.8554 16.3375C14.8682 16.2043 14.8707 16.2027 15.0694 16.2027H15.2706L15.2827 16.3939L15.2952 16.585H15.0904C14.9519 16.585 14.8787 16.5669 14.8642 16.5287ZM14.6067 10.348H15.0135L15.001 10.5392L14.989 10.7303L14.7978 10.7424L14.6067 10.7548V10.348ZM14.9153 17.564C14.9004 17.5495 14.8884 17.459 14.8884 17.3628V17.1886H15.2907V17.3652C15.2907 17.4896 15.2718 17.5495 15.2272 17.5664C15.1423 17.599 14.9487 17.5978 14.9153 17.564ZM18.3658 20.4744C18.3537 20.4422 18.3493 20.3465 18.3561 20.2612L18.369 20.1059H18.7311V20.5082L18.5597 20.5207C18.4382 20.5296 18.3819 20.5159 18.3658 20.4744ZM19.2341 18.1543H19.556V18.5567H19.2341V18.1543ZM12.4028 10.6832C12.3312 10.6543 12.2318 10.4506 12.2358 10.34C12.2375 10.2889 12.2471 10.2676 12.2572 10.2917C12.2672 10.3163 12.3183 10.3283 12.3702 10.3183C12.4716 10.2989 12.6752 10.443 12.6752 10.5339C12.6752 10.5621 12.635 10.6132 12.5859 10.6474C12.491 10.7138 12.4829 10.7154 12.4028 10.6832ZM19.2743 14.2512H19.556V14.6535H19.2743V14.2512ZM12.5191 9.94968C12.4117 9.88127 12.5195 9.82494 12.7481 9.83017C12.9529 9.835 12.9621 9.83862 12.8362 9.86518C12.7589 9.88168 12.7223 9.89737 12.7557 9.90059C12.8092 9.90582 12.8092 9.91105 12.7557 9.94566C12.6809 9.99394 12.592 9.99555 12.5191 9.94968ZM9.49883 16.7041C9.43605 16.9821 9.32017 17.2123 9.10369 17.5386C8.97291 17.7354 8.75562 17.9366 8.50413 18.106C8.5991 18.0384 8.69124 17.9632 8.77896 17.8803C9.09966 17.5781 9.26182 17.3366 9.42559 16.9166C9.45658 16.8369 9.48032 16.7697 9.49883 16.7041ZM7.95086 18.4022C7.85549 18.4408 7.76013 18.4726 7.66718 18.4959C7.33923 18.5788 6.99318 18.5828 6.65478 18.5156C7.08814 18.5973 7.53479 18.5599 7.95086 18.4022ZM6.11317 22.284C6.47894 22.193 6.85516 22.088 7.07205 22.0111C7.20162 21.9657 7.34728 21.9061 7.49898 21.8381C7.34567 21.9077 7.20041 21.9673 7.07245 22.0119C6.85436 22.0884 6.47853 22.1934 6.11317 22.284ZM9.2924 14.895C9.43686 15.1726 9.51532 15.3855 9.54912 15.6285C9.51452 15.3843 9.43565 15.1706 9.2924 14.895Z" fill="#3492C5"/>
<path d="M22.3855 20.4075C22.2716 20.3906 22.1549 20.3625 22.1263 20.3448C22.0977 20.3271 21.9191 20.2973 21.73 20.2784C21.4877 20.2538 21.3904 20.2438 21.293 20.2466C21.2246 20.2482 21.1566 20.2562 21.0395 20.2699C20.86 20.2905 20.7759 20.2792 20.6282 20.2136C20.4295 20.1259 20.3687 20.0136 20.4166 19.8225C20.458 19.6579 20.5425 19.6627 20.7011 19.8386C20.8834 20.0402 21.1626 20.1146 21.4962 20.051C21.6125 20.0285 21.8096 19.9991 21.9344 19.9854C22.0591 19.9714 22.1947 19.9339 22.2362 19.9022C22.3074 19.8466 22.303 19.8366 22.1501 19.7038C22.0615 19.6269 21.9493 19.5633 21.901 19.5629C21.8523 19.5629 21.8024 19.546 21.7899 19.5259C21.7775 19.5054 21.6893 19.4515 21.5944 19.4052C21.4016 19.3119 21.095 18.9348 21.0552 18.7417C21.0387 18.6628 20.9948 18.6117 20.9176 18.5827C20.8479 18.5562 20.7872 18.4926 20.7606 18.4174C20.7192 18.3003 20.7148 18.2982 20.6596 18.3723C20.6278 18.4149 20.5912 18.5147 20.5779 18.5936C20.5349 18.8551 20.526 18.8636 20.4166 18.7453C20.3554 18.6797 20.3309 18.6499 20.3011 18.6439C20.2745 18.6387 20.2444 18.6523 20.18 18.6765L20.0762 18.7163L20.087 14.4213C20.089 13.5799 20.0911 12.9011 20.0935 12.353C20.1108 13.2326 20.1401 14.0813 20.1631 14.0672C20.1824 14.0551 20.1985 14.0817 20.1985 14.1267C20.1985 14.2092 20.3055 14.2913 20.4134 14.2913C20.5156 14.2913 20.5627 14.0499 20.5884 13.3952C20.6158 12.7083 20.6472 12.5981 20.782 12.7152C20.9811 12.8878 21.1324 13.1296 21.1151 13.2471C21.0998 13.3517 21.1135 13.369 21.2419 13.4105C21.4407 13.4745 21.6938 13.6278 21.6583 13.6628C21.6427 13.6789 21.6636 13.6789 21.705 13.6628C21.7581 13.6427 21.7722 13.6483 21.7521 13.6809C21.7328 13.7119 21.7581 13.7296 21.8257 13.7328C21.8825 13.7356 21.9424 13.7429 21.9589 13.7485C21.9754 13.7541 22.0285 13.7718 22.0768 13.7875C22.1251 13.8036 22.1742 13.8418 22.1863 13.8728C22.1983 13.9038 22.2329 13.9292 22.2635 13.9292C22.2941 13.9292 22.3943 13.9835 22.486 14.0503C22.6381 14.1601 22.653 14.1867 22.653 14.3476C22.653 14.5299 22.6925 14.573 22.8595 14.573C22.9862 14.573 23.1299 14.3855 23.1468 14.1972C23.1552 14.105 23.1653 14.7947 23.1693 15.7298L23.1761 17.4299H24.2223L24.2288 15.8304C24.234 14.6466 24.2429 14.3722 24.2642 14.7742C24.294 15.3415 24.3656 16.0091 24.4082 16.1205C24.4219 16.1564 24.4943 16.2111 24.5692 16.2425C24.6541 16.2779 24.7052 16.327 24.7052 16.3736C24.7052 16.5253 24.8887 16.6026 24.9824 16.4899C25.0074 16.4598 25.1305 16.4227 25.2561 16.4083C25.5337 16.3757 26.3952 16.4223 26.3952 16.4702C26.3952 16.4891 26.1147 16.5044 25.7715 16.5044H25.1478V17.4299H26.5079C27.2559 17.4299 27.8852 17.4146 27.9062 17.3961C27.8852 17.4146 27.8305 17.4299 27.7846 17.4299C27.6531 17.4299 27.099 17.7651 26.8077 18.0206C26.1642 18.5856 25.8226 19.2579 25.7578 20.0856L25.7313 20.4277L24.162 20.4329C23.2989 20.4357 22.4993 20.4244 22.3855 20.4075ZM26.1807 18.2882C26.2274 18.3353 26.2697 18.3184 26.4705 18.1743C26.5783 18.0971 26.6837 18.0335 26.705 18.0335C26.7268 18.0335 26.792 17.98 26.8503 17.9144C26.9087 17.8488 27.0113 17.7671 27.0781 17.7321C27.299 17.6182 27.2165 17.4963 26.9585 17.5563C26.8813 17.5744 26.6435 17.5892 26.4306 17.5901C25.9301 17.5913 25.7775 17.6202 25.8162 17.7071C25.8319 17.7426 25.8468 17.823 25.8484 17.8858C25.8524 18.0073 25.961 18.114 26.0809 18.114C26.1248 18.114 26.1538 18.1433 26.1538 18.1876C26.1538 18.2282 26.1659 18.2737 26.1807 18.2882ZM31.0041 18.0166L31.0242 17.918C31.0359 17.8597 31.0452 16.0916 31.0444 13.9887L31.0427 10.1653L31.0456 13.9686C31.0472 16.0606 31.0407 17.8287 31.0311 17.8979L31.0138 18.0234L31.0041 18.0166ZM22.1054 19.5456C22.0817 19.4833 21.969 19.4253 21.969 19.4752C21.969 19.4921 21.9907 19.5279 22.0173 19.5545C22.0833 19.6205 22.1324 19.6153 22.1054 19.5456ZM30.8013 17.8665L30.8758 17.9244L30.7257 17.817C30.6701 17.7772 30.6146 17.7393 30.5587 17.7039C30.6512 17.7591 30.7345 17.8142 30.8013 17.8665ZM20.1393 10.0948C20.1466 10.0486 20.155 10.0236 20.1647 10.0059C20.1756 9.9862 20.188 9.96648 20.2017 9.94637C20.1752 9.99022 20.155 10.0377 20.1393 10.0948ZM29.0811 17.2529C29.3197 17.2589 29.5431 17.281 29.6948 17.3209C29.737 17.3321 29.7821 17.3462 29.8296 17.3623C29.7841 17.3478 29.7386 17.3345 29.6919 17.3221C29.5423 17.2814 29.3193 17.2593 29.0811 17.2529ZM20.4234 9.71499C20.4794 9.67073 20.5393 9.6309 20.6009 9.5979C20.5494 9.62526 20.4818 9.67073 20.4234 9.71499Z" fill="#69357D"/>
<path d="M1.95661 18.1334C1.60332 18.0364 1.24882 17.8324 0.987671 17.5761C0.155541 16.7596 0.149103 15.3835 0.973588 14.5658C1.23514 14.3067 1.45001 14.1699 1.79445 14.0436C2.01576 13.9623 2.1228 13.9546 3.30379 13.9389L4.57452 13.9216L4.60027 16.0237C4.61436 17.1793 4.61637 18.1406 4.6043 18.1599C4.56768 18.2195 2.18275 18.1954 1.95661 18.1334ZM3.45107 16.8594C3.86592 17.2799 4.21922 17.6256 4.23572 17.6276C4.25221 17.6296 4.26589 16.9206 4.26589 16.0523V14.4733L3.48125 15.2571C3.04949 15.6881 2.6966 16.0531 2.6966 16.0679C2.6966 16.0828 3.03621 16.4393 3.45107 16.8594ZM1.89223 15.2982C2.1908 15.6068 2.45034 15.8595 2.46885 15.8599C2.50627 15.8607 3.99549 14.3461 4.01883 14.2834C4.02808 14.2584 3.69531 14.2504 3.09335 14.262C2.26122 14.2777 2.12441 14.2898 1.89867 14.3675C1.62344 14.4624 1.31843 14.6439 1.33775 14.7019C1.34418 14.7212 1.59406 14.99 1.89223 15.2982ZM1.86849 17.737C2.09664 17.8219 2.17752 17.8284 3.07846 17.8304L4.04378 17.8324L3.28005 17.0679C2.85996 16.6474 2.4954 16.3033 2.46965 16.3033C2.42619 16.3033 1.40333 17.3572 1.37678 17.4292C1.35706 17.4831 1.60734 17.6401 1.86849 17.737ZM1.0267 17.1013L1.13977 17.2353L1.71719 16.6591L2.29461 16.0828L1.12327 14.9151L1.03877 15.0157C0.9925 15.0712 0.898342 15.2338 0.829535 15.3779C0.713246 15.6221 0.704795 15.6688 0.706003 16.082C0.706807 16.4715 0.719281 16.5512 0.81022 16.746C0.866956 16.8679 0.964333 17.0276 1.0267 17.1013ZM21.8171 21.3673C21.8054 21.4462 21.8223 21.4539 22.0082 21.4539H21.8098V21.047L22.001 21.0595L22.1921 21.0716L22.2042 21.2627L22.2098 21.3464C22.2018 21.3082 22.1732 21.2929 22.1148 21.2929C22.0613 21.2929 22.0094 21.2704 21.9994 21.2426C21.9716 21.1666 21.8328 21.2615 21.8171 21.3673ZM22.2122 21.3826L22.2166 21.4539H22.013C22.178 21.4539 22.2094 21.4434 22.2122 21.3826Z" fill="#8F53D0"/>
<path d="M30.804 17.8667C30.5417 17.6618 30.027 17.4083 29.6975 17.321C29.2295 17.1975 28.0791 17.2462 27.9089 17.3963C27.9025 17.4019 27.8393 17.4071 27.7339 17.412C27.8489 17.4047 27.9061 17.3947 27.919 17.3818C27.9503 17.3504 27.9672 17.1878 27.9672 16.919V16.5046H25.7742C26.1175 16.5046 26.3979 16.4893 26.3979 16.4704C26.3979 16.4225 25.5364 16.3758 25.2588 16.4084C25.1332 16.4229 25.0101 16.4599 24.9852 16.4901C24.8914 16.6028 24.7079 16.5255 24.7079 16.3738C24.7079 16.3271 24.6568 16.278 24.5719 16.2426C24.4971 16.2112 24.4247 16.1565 24.411 16.1207C24.3683 16.0093 24.2967 15.3417 24.2669 14.7743C24.2456 14.3724 24.2367 14.6468 24.2315 15.8306L24.2251 17.4301V12.5612H23.1789V17.4301L23.172 15.73C23.168 14.7949 23.1579 14.1052 23.1495 14.1973C23.1326 14.3856 22.9889 14.5731 22.8622 14.5731C22.6952 14.5731 22.6558 14.5301 22.6558 14.3478C22.6558 14.1869 22.6409 14.1603 22.4888 14.0504C22.397 13.9836 22.2968 13.9293 22.2663 13.9293C22.2357 13.9293 22.2011 13.904 22.189 13.873C22.1769 13.842 22.1278 13.8038 22.0796 13.7877C22.0313 13.772 21.9782 13.7543 21.9617 13.7487C21.9452 13.743 21.8852 13.7358 21.8285 13.733C21.7609 13.7297 21.7355 13.712 21.7548 13.6811C21.775 13.6485 21.7609 13.6428 21.7078 13.6629C21.6663 13.679 21.6454 13.679 21.6611 13.6629C21.6965 13.6279 21.4434 13.4746 21.2446 13.4107C21.1162 13.3692 21.1026 13.3519 21.1179 13.2473C21.1352 13.1298 20.9839 12.888 20.7847 12.7153C20.6499 12.5982 20.6185 12.7085 20.5911 13.3954C20.5706 13.9225 20.536 14.1816 20.4696 14.2625C20.4833 14.1333 20.4998 13.3463 20.5082 12.4127C20.5191 11.2494 20.5416 10.5062 20.5698 10.398C20.6237 10.19 20.8048 10.0029 20.9786 9.9747C21.1279 9.95055 22.3137 10.0117 22.564 10.0564C22.7097 10.0821 22.7515 10.1139 22.8558 10.2789C22.923 10.3851 22.9777 10.4877 22.9777 10.5075C22.9777 10.5272 23.0505 10.5759 23.1398 10.6149C23.2461 10.662 23.3088 10.7187 23.3209 10.7791C23.3603 10.971 23.3716 11.0374 23.4098 11.0603C23.432 11.074 23.463 11.0724 23.5141 11.0724C23.609 11.0724 23.6798 11.107 23.7623 11.1931C23.8259 11.2595 23.8987 11.3138 23.9237 11.3138C23.949 11.3138 24.0122 11.3589 24.0641 11.4144C24.116 11.47 24.178 11.5154 24.2017 11.5162C24.2259 11.517 24.3051 11.5722 24.3788 11.639C24.5232 11.7701 24.6275 11.9774 24.6275 12.1327C24.6275 12.1946 24.6677 12.2562 24.7381 12.3021C24.7989 12.3415 24.8689 12.4015 24.8938 12.4345C24.9329 12.4876 24.9574 12.484 25.0882 12.4067C25.2355 12.3198 25.2447 12.3194 25.5867 12.3797C25.7783 12.4135 26.3155 12.4638 26.7802 12.4912L27.6252 12.5411L26.3879 12.5516L25.1506 12.5624V13.5257L26.4684 13.5366C27.7576 13.5467 27.7829 13.5487 27.6365 13.6175C27.5222 13.6714 27.3806 13.6879 27.0329 13.6887C26.7834 13.6887 26.5545 13.7048 26.5243 13.7237C26.4181 13.7909 26.5657 14.1708 26.6981 14.1708C26.7231 14.1708 26.7653 14.1921 26.7911 14.2178C26.8744 14.3011 27.1327 14.3719 27.5347 14.4214C27.7504 14.4484 27.927 14.4842 27.927 14.5015C27.927 14.5188 27.3045 14.5329 26.544 14.5329H25.161L25.1373 14.7643C25.1244 14.8914 25.1264 15.1043 25.1421 15.2371L25.1707 15.4785H27.9471L27.9922 14.714L28.0043 15.1164C28.0111 15.3377 28.0204 15.5369 28.0244 15.559C28.0449 15.6656 28.1036 15.7429 28.1507 15.7248C28.224 15.6966 28.2904 15.7899 28.2706 15.8934C28.2545 15.9771 28.3378 16.1022 28.4095 16.1022C28.4284 16.1022 28.4996 16.1489 28.5676 16.2064C28.6614 16.2853 28.6915 16.344 28.6915 16.4478C28.6915 16.5235 28.7052 16.5814 28.7217 16.577C28.7382 16.5726 28.8287 16.6092 28.9229 16.6583C29.0545 16.7271 29.0939 16.7706 29.0939 16.8482C29.0939 16.9211 29.1249 16.9609 29.2046 16.9919C29.2653 17.0152 29.3877 17.0667 29.4762 17.1057C29.7719 17.2369 30.0383 17.3448 30.1908 17.3959C30.2737 17.4236 30.4045 17.5017 30.4809 17.5689C30.5574 17.6365 30.6688 17.7323 30.7284 17.7822C30.8503 17.884 30.8608 17.8864 30.9433 17.8345C30.9964 17.8007 31.027 17.4888 31.0423 16.6084C31.0386 17.3842 31.033 17.8876 31.027 17.9182L31.0052 18.0236L30.804 17.8667ZM26.1835 18.2884C26.1686 18.2739 26.1565 18.2284 26.1565 18.1878C26.1565 18.1435 26.1275 18.1141 26.0837 18.1141C25.9638 18.1141 25.8551 18.0075 25.8511 17.886C25.8495 17.8232 25.8346 17.7427 25.8189 17.7073C25.7803 17.6204 25.9328 17.5914 26.4334 17.5902C26.6462 17.5894 26.884 17.5745 26.9613 17.5564C27.2192 17.4965 27.3017 17.6184 27.0808 17.7323C27.014 17.7673 26.9114 17.8489 26.853 17.9145C26.7947 17.9801 26.7295 18.0336 26.7078 18.0336C26.6865 18.0336 26.581 18.0972 26.4732 18.1745C26.2724 18.3185 26.2301 18.3354 26.1835 18.2884ZM20.3827 14.2891C20.2873 14.2746 20.2012 14.2009 20.2012 14.1269C20.2012 14.1172 20.2004 14.1088 20.1992 14.1011C20.2032 14.112 20.2065 14.1249 20.2085 14.1394C20.2169 14.1997 20.3083 14.2681 20.3827 14.2891ZM20.1047 12.7355C20.0853 11.9226 20.0745 10.9706 20.0882 10.5996C20.0749 10.9561 20.0857 11.9154 20.1047 12.7355Z" fill="#943973"/>
<path d="M26.1717 9.52319C25.0945 9.54009 24.0693 9.56947 23.5285 9.60327C22.4931 9.66765 22.4308 9.67489 22.339 9.74732C22.2875 9.78756 22.2167 9.80929 22.1813 9.79561C22.1414 9.78032 22.127 9.78756 22.1435 9.81412C22.1841 9.87971 22.063 9.9127 21.6674 9.94489L21.319 9.97266C21.1496 9.96783 21.0196 9.96783 20.9761 9.97467C20.8023 10.0028 20.6212 10.1899 20.5673 10.398C20.5392 10.5062 20.5166 11.2494 20.5058 12.4127C20.4965 13.4263 20.4776 14.2673 20.4639 14.281C20.4108 14.3341 20.2189 14.2283 20.206 14.1393C20.1987 14.0894 20.1782 14.0581 20.1601 14.0689C20.1211 14.0931 20.0607 11.2724 20.0857 10.5996C20.105 10.0893 20.1436 9.96702 20.346 9.77911C20.4088 9.72076 20.5239 9.63948 20.6011 9.59804C20.7363 9.52601 20.9371 9.52319 25.5939 9.52319H26.1717ZM15.5085 10.6539C15.4953 10.6008 15.49 10.5151 15.4977 10.4628L15.511 10.3682L17.7736 10.3469L17.7965 10.5167C17.809 10.61 17.8102 10.701 17.7993 10.7183C17.7885 10.736 17.2742 10.7505 16.6561 10.7505H15.5327L15.5085 10.6539ZM15.8932 18.1543H17.8247V18.5567H15.8932V18.1543ZM15.5311 15.2169H15.9335V15.6193H15.5311V15.2169ZM16.5322 19.4218C16.5294 19.3663 16.527 19.2943 16.527 19.2609C16.527 19.1253 16.5411 19.116 16.7282 19.1281L16.9193 19.1402L16.9314 19.3313L16.9439 19.5224H16.7402C16.5515 19.5224 16.5366 19.5152 16.5322 19.4218ZM19.2733 16.404C19.2733 16.2237 19.2741 16.2229 19.4141 16.2229C19.5541 16.2229 19.5549 16.2237 19.5549 16.404C19.5549 16.5842 19.5541 16.585 19.4141 16.585C19.2741 16.585 19.2733 16.5842 19.2733 16.404ZM21.8155 21.3674C21.8312 21.2615 21.97 21.1666 21.9978 21.2426C22.0079 21.2704 22.0598 21.2929 22.1133 21.2929C22.1837 21.2929 22.2107 21.3151 22.2107 21.3734C22.2107 21.4434 22.1837 21.4539 22.0066 21.4539C21.8207 21.4539 21.8038 21.4462 21.8155 21.3674ZM15.6518 15.398C15.6518 15.4314 15.6876 15.4584 15.7323 15.4584C15.7769 15.4584 15.8127 15.4314 15.8127 15.398C15.8127 15.3646 15.7769 15.3376 15.7323 15.3376C15.6876 15.3376 15.6518 15.3646 15.6518 15.398ZM21.4357 9.97668L21.7479 9.98312C21.9914 9.98795 22.3121 10.0137 22.4609 10.0399C22.4774 10.0427 22.4927 10.0455 22.5072 10.0479C22.2984 10.0209 21.8087 9.99036 21.4357 9.97668ZM22.7169 10.1111C22.7555 10.1364 22.7845 10.173 22.8243 10.2342C22.7845 10.1747 22.7531 10.1368 22.7169 10.1111Z" fill="#9D4F95"/>
<path d="M4.16449 22.5788C4.15 22.5558 4.23973 22.4134 4.36326 22.2625C4.4868 22.1112 4.65258 21.8484 4.73104 21.6778C4.97046 21.16 4.99018 20.9652 4.99018 19.1175V17.4725L5.01392 17.4967C4.9946 17.5099 4.99299 17.5848 4.99702 17.7771C5.00064 17.9514 5.0103 18.0214 5.01835 17.9328C5.04209 17.6749 5.05939 17.6488 5.15234 17.7325C5.1962 17.7723 5.24247 17.7944 5.25535 17.7815C5.26823 17.7687 5.24086 17.7381 5.19499 17.7135C5.14872 17.6886 5.11089 17.6443 5.11089 17.6146C5.11089 17.6069 5.10928 17.5981 5.10566 17.5888L5.30203 17.7856C5.939 18.4242 6.85925 18.7006 7.66764 18.4958C8.20965 18.3586 8.83697 17.9405 9.10415 17.5385C9.44296 17.0283 9.5347 16.7531 9.56408 16.1624C9.59064 15.6332 9.53028 15.3516 9.29287 14.8948C9.08886 14.5017 8.83858 14.2205 8.47965 13.9802C8.31991 13.8736 8.18873 13.7686 8.18833 13.7468C8.18792 13.7255 8.29335 13.6394 8.42251 13.5557C9.13272 13.097 9.58983 12.2914 9.59506 11.4891C9.59627 11.3044 9.60391 11.1531 9.61156 11.1531C9.6192 11.1527 9.7367 11.2492 9.87311 11.3675C10.5467 11.9514 11.1032 12.1808 11.98 12.2359C12.3297 12.2576 12.4492 12.2802 12.5107 12.3361C12.6194 12.4343 12.6532 12.6141 12.588 12.7485C12.5027 12.9256 12.3087 13.0089 11.8396 13.07C11.2891 13.1417 11.1736 13.1743 10.9052 13.3348C10.6662 13.4776 10.4537 13.7493 10.3833 14.0024C10.3608 14.084 10.3423 14.2695 10.3423 14.4148C10.3415 15.2916 10.9084 15.7471 12.1929 15.9012C13.2165 16.0243 13.596 16.2424 13.6652 16.7474C13.7215 17.1566 13.505 17.4922 13.1099 17.6097C12.8459 17.6882 12.7461 17.6624 11.9997 17.322C11.1137 16.9176 10.772 16.8601 10.3463 17.0436C10.1536 17.1269 10.1222 17.1309 10.0594 17.0778C9.86707 16.9152 9.78861 16.8372 9.75119 16.77C9.65783 16.6034 9.43773 16.8838 9.39266 17.2263C9.36812 17.415 9.18906 17.7115 9.10013 17.7115C9.0611 17.7115 8.977 17.7659 8.91342 17.8322C8.84985 17.8986 8.81725 17.953 8.84099 17.953C8.86514 17.953 8.89652 18.0004 8.91101 18.0584C8.94481 18.1932 9.01844 18.2668 9.09409 18.2415C9.18664 18.2105 9.07317 18.3127 8.83295 18.4761C7.96219 19.0688 7.75214 19.7778 8.34807 20.1118C8.52553 20.2115 8.57381 20.2848 8.69332 20.6369C8.77621 20.8811 8.87198 20.9733 8.97619 20.9089C9.00114 20.8936 8.99792 20.9173 8.96895 20.9636C8.8418 21.1672 7.74088 21.7752 7.07252 22.011C6.66651 22.1547 5.7028 22.3977 5.29197 22.4605C4.2856 22.6146 4.19829 22.6315 4.17575 22.6005C4.17173 22.5949 4.16972 22.5872 4.16449 22.5788ZM3.24786 21.2203C2.94446 20.9165 2.69699 20.6501 2.69699 20.6284C2.69739 20.6063 3.04143 20.2462 3.46152 19.8281L4.22565 19.0672V19.9918C4.22565 20.7238 4.21237 20.9616 4.16086 21.1346C4.09447 21.3591 3.93915 21.6557 3.84942 21.7301C3.8116 21.7619 3.6611 21.6344 3.24786 21.2203ZM1.8713 19.8422C1.49869 19.4679 1.34901 19.3303 1.37395 19.241C1.39126 19.1778 1.49588 19.1388 1.67051 19.0571C1.98316 18.9118 2.32076 18.874 3.19957 18.8869L4.00434 18.8986L3.24544 19.643C2.82817 20.0522 2.47488 20.3918 2.46039 20.3974C2.4459 20.4031 2.18073 20.1532 1.8713 19.8422ZM7.82819 16.6263L7.26727 16.0642L7.60688 15.7109C7.79399 15.5165 8.05433 15.2546 8.18591 15.1286C8.31588 15.0039 8.38067 14.9379 8.43499 14.9459C8.49414 14.954 8.54122 15.0514 8.64785 15.257C8.86272 15.6723 8.90658 16.1213 8.7742 16.5503C8.69614 16.8025 8.48247 17.1884 8.42091 17.1884C8.4036 17.1884 8.13682 16.9353 7.82819 16.6263ZM1.99242 22.3647C1.77714 22.2939 1.43552 22.1176 1.37677 22.0472C1.33854 22.0009 1.43512 21.881 1.88659 21.4102L2.44309 20.8304L3.02815 21.3938C3.41082 21.7615 3.57419 21.9064 3.55085 22.0086C3.53274 22.0871 3.40559 22.1406 3.18428 22.25C2.91106 22.3852 2.84748 22.4001 2.51793 22.4086C2.29944 22.4142 2.08859 22.3965 1.99242 22.3647ZM1.00939 21.6589C0.593731 21.0751 0.579245 20.2566 0.973984 19.678L1.10717 19.4828L2.25075 20.6244L1.69948 21.1901C1.39608 21.5012 1.13614 21.7607 1.12166 21.7676C1.10717 21.774 1.05687 21.7253 1.00939 21.6589ZM6.62989 17.7884C6.45526 17.7473 6.13738 17.5928 6.00459 17.4842L5.91325 17.4097L6.48825 16.8363L7.06366 16.263L8.22092 17.4226L8.02415 17.547C7.62942 17.7964 7.07211 17.893 6.62989 17.7884ZM6.46371 15.2691L5.9052 14.719L6.00097 14.6401C6.05368 14.5967 6.21423 14.5049 6.35828 14.4361C6.8504 14.2011 7.5763 14.2534 8.02174 14.556C8.10544 14.6132 8.16821 14.6755 8.16137 14.6953C8.13602 14.7685 7.11477 15.8203 7.0693 15.8199C7.04354 15.8195 6.77073 15.5717 6.46371 15.2691ZM5.55392 16.9772C5.2127 16.3873 5.21994 15.7165 5.57364 15.1129C5.63077 15.0152 5.69073 14.9351 5.70682 14.9351C5.72252 14.9351 5.98849 15.1886 6.29793 15.4984L6.86006 16.0618L6.29793 16.6251C5.98849 16.9349 5.72211 17.1884 5.70562 17.1884C5.68912 17.1884 5.62071 17.0935 5.55392 16.9772Z" fill="#A9D7EE"/>
<path d="M3.45024 16.8595C3.03538 16.4394 2.69577 16.0829 2.69577 16.068C2.69577 16.0531 3.04866 15.6881 3.48042 15.2572L4.26507 14.4733V16.0523C4.26507 16.9206 4.25139 17.6296 4.23489 17.6276C4.21839 17.6256 3.8651 17.28 3.45024 16.8595ZM1.8914 15.2982C1.59324 14.99 1.34336 14.7212 1.33692 14.7019C1.3176 14.644 1.62261 14.4625 1.89784 14.3675C2.12358 14.2899 2.26039 14.2778 3.09252 14.2621C3.69449 14.2504 4.02726 14.2585 4.018 14.2834C3.99466 14.3462 2.50544 15.8608 2.46802 15.86C2.44951 15.8596 2.18997 15.6069 1.8914 15.2982ZM1.86766 17.7371C1.60651 17.6401 1.35623 17.4832 1.37595 17.4293C1.40251 17.3572 2.42537 16.3034 2.46882 16.3034C2.49458 16.3034 2.85914 16.6474 3.27923 17.0679L4.04295 17.8324L3.07763 17.8304C2.17669 17.8284 2.09581 17.822 1.86766 17.7371ZM1.02587 17.1013C0.963505 17.0277 0.866128 16.8679 0.809392 16.746C0.718453 16.5513 0.705979 16.4716 0.705174 16.0821C0.703967 15.6688 0.712418 15.6221 0.828707 15.3779C0.897514 15.2338 0.991672 15.0713 1.03795 15.0158L1.12245 14.9152L2.29379 16.0829L1.71637 16.6591L1.13894 17.2353L1.02587 17.1013Z" fill="#BD91E8"/>
<path d="M30.7273 17.7819C30.6677 17.732 30.5562 17.6362 30.4798 17.5686C30.4033 17.5014 30.2726 17.4233 30.1897 17.3956C30.0372 17.3445 29.7708 17.2366 29.475 17.1055C29.3865 17.0664 29.2642 17.0149 29.2034 16.9916C29.1238 16.9606 29.0928 16.9208 29.0928 16.8479C29.0928 16.7703 29.0533 16.7268 28.9218 16.658C28.8276 16.6089 28.7371 16.5723 28.7206 16.5767C28.7041 16.5811 28.6904 16.5232 28.6904 16.4476C28.6904 16.3437 28.6602 16.285 28.5665 16.2061C28.4984 16.1486 28.4272 16.1019 28.4083 16.1019C28.3367 16.1019 28.2534 15.9768 28.2695 15.8931C28.2892 15.7897 28.2228 15.6963 28.1496 15.7245C28.1025 15.7426 28.0438 15.6653 28.0232 15.5587C28.0192 15.5366 28.01 15.3374 28.0031 15.1161L27.991 14.7137L27.946 15.4782L27.9685 14.5326H26.5646C27.3154 14.5322 27.9259 14.5181 27.9259 14.5012C27.9259 14.4839 27.7492 14.4481 27.5335 14.4212C27.1316 14.3717 26.8732 14.3008 26.7899 14.2175C26.7642 14.1918 26.7219 14.1705 26.697 14.1705C26.5646 14.1705 26.4169 13.7906 26.5231 13.7234C26.5533 13.7045 26.7823 13.6884 27.0318 13.6884C27.3794 13.6876 27.5211 13.6711 27.6353 13.6172C27.7818 13.5484 27.7565 13.5464 26.4672 13.5363L25.2862 13.5267H27.9661V12.5609H25.2846L26.3867 12.5513L27.6241 12.5408L26.7791 12.4909C26.3143 12.4636 25.7771 12.4133 25.5856 12.3795C25.2436 12.3191 25.2343 12.3195 25.087 12.4064C24.9563 12.4837 24.9317 12.4873 24.8927 12.4342C24.8677 12.4012 24.7977 12.3412 24.737 12.3018C24.6665 12.2559 24.6263 12.1944 24.6263 12.1324C24.6263 11.9771 24.5221 11.7698 24.3776 11.6387C24.304 11.5719 24.2247 11.5167 24.2006 11.5159C24.1768 11.5151 24.1149 11.4697 24.063 11.4141C24.0111 11.3586 23.9479 11.3135 23.9225 11.3135C23.8976 11.3135 23.8248 11.2592 23.7612 11.1928C23.6787 11.1067 23.6079 11.0721 23.5129 11.0721C23.4618 11.0721 23.4308 11.0737 23.4087 11.06C23.3705 11.0371 23.3592 10.9707 23.3198 10.7788C23.3077 10.7184 23.2449 10.6617 23.1387 10.6146C23.0494 10.5756 22.9765 10.5269 22.9765 10.5072C22.9765 10.4874 22.9218 10.3848 22.8546 10.279C22.7371 10.0935 22.7238 10.0855 22.4623 10.0396C22.3134 10.0134 21.9927 9.98768 21.7493 9.98286L21.3066 9.9736L21.6688 9.94463C22.0643 9.91244 22.1854 9.87944 22.1448 9.81386C22.1283 9.7873 22.1428 9.78005 22.1826 9.79535C22.218 9.80903 22.2889 9.7873 22.3404 9.74706C22.4321 9.67463 22.4945 9.66739 23.5298 9.60301C24.4863 9.54345 26.9573 9.49718 28.5528 9.50925L29.03 9.51247C28.0071 9.52213 26.4165 9.57202 25.753 9.62071C25.0589 9.67222 24.8275 9.70843 24.8275 9.76557C24.8275 9.79333 24.7977 9.82754 24.7615 9.84162C24.7249 9.8553 24.7044 9.87622 24.716 9.88749C24.7273 9.89876 25.0058 9.93377 25.3353 9.96555C26.0503 10.034 26.2125 10.0794 26.1811 10.2022C26.1075 10.4887 26.1063 10.5088 26.1618 10.5088C26.2113 10.5088 26.3863 10.6737 26.3646 10.6999C26.3332 10.7389 26.3686 10.7904 26.427 10.7908C26.5215 10.7912 26.9601 11.1981 26.9601 11.2854C26.9601 11.3232 27.0052 11.3936 27.0607 11.4419C27.1163 11.4898 27.1613 11.5586 27.1613 11.5944C27.1613 11.6962 27.2458 11.7562 27.3891 11.7562C27.4611 11.7562 27.5436 11.7851 27.5722 11.8201C27.6007 11.8551 27.6828 11.9465 27.7548 12.0225C27.8269 12.099 27.8856 12.1843 27.8856 12.2125C27.8856 12.3042 28.047 12.4402 28.1556 12.4402C28.214 12.4402 28.29 12.466 28.325 12.497C28.36 12.5283 28.4522 12.5702 28.5294 12.5899C28.6445 12.6193 28.6727 12.6474 28.684 12.7432C28.6912 12.8076 28.7503 12.9203 28.8147 12.9935C28.8791 13.0671 28.9318 13.1444 28.9318 13.1657C28.9318 13.1874 28.9564 13.2047 28.9865 13.2047C29.0163 13.2047 29.1306 13.2909 29.2404 13.3959C29.7973 13.9298 29.8867 14.0095 29.9293 14.0095C29.9547 14.0095 30.0372 14.0638 30.1128 14.1302C30.1885 14.1966 30.2677 14.2509 30.2891 14.2509C30.3715 14.2509 30.4524 14.4006 30.4746 14.593C30.487 14.7036 30.5164 14.8598 30.5401 14.9402C30.5635 15.0203 30.5876 15.1925 30.5937 15.3225C30.5997 15.4525 30.6383 15.6448 30.679 15.7498C30.7498 15.9313 30.8206 15.9997 30.825 15.8907C30.8283 15.8134 30.8633 15.5104 30.9075 15.1764C30.9297 15.0106 30.9586 14.5893 30.9719 14.2409C30.9856 13.8924 31.0125 13.6071 31.0323 13.6071C31.0407 13.6071 31.0472 13.4937 31.0516 13.2953L31.052 13.3444C31.06 16.8266 31.0367 17.7742 30.9421 17.8342C30.8596 17.8861 30.8492 17.8837 30.7273 17.7819ZM29.9104 9.51891L30.4472 9.52293L30.6432 9.64405C30.4806 9.54386 30.4528 9.53219 29.9104 9.51891ZM25.1719 15.4484C25.176 15.4617 25.2106 15.4714 25.2935 15.4782H25.1695L25.1607 15.4026C25.1643 15.4203 25.1679 15.4356 25.1719 15.4484ZM25.1554 14.5769L25.1599 14.5326H25.1607L25.1554 14.5769Z" fill="#BA3E6F"/>
<path d="M30.6782 15.7498C30.6375 15.6448 30.5989 15.4524 30.5929 15.3225C30.5868 15.1925 30.5627 15.0203 30.5393 14.9402C30.5156 14.8597 30.4862 14.7036 30.4738 14.593C30.4516 14.4006 30.3707 14.2509 30.2883 14.2509C30.2669 14.2509 30.1877 14.1966 30.112 14.1302C30.0364 14.0638 29.9539 14.0095 29.9285 14.0095C29.8859 14.0095 29.7965 13.9298 29.2396 13.3959C29.1298 13.2908 29.0155 13.2047 28.9857 13.2047C28.9556 13.2047 28.931 13.1874 28.931 13.1657C28.931 13.1444 28.8783 13.0671 28.8139 12.9935C28.7495 12.9202 28.6904 12.8076 28.6831 12.7432C28.6719 12.6474 28.6437 12.6193 28.5286 12.5899C28.4514 12.5702 28.3592 12.5283 28.3242 12.4969C28.2892 12.466 28.2132 12.4402 28.1548 12.4402C28.0462 12.4402 27.8848 12.3042 27.8848 12.2124C27.8848 12.1843 27.8261 12.099 27.754 12.0225C27.682 11.9465 27.5999 11.8551 27.5714 11.8201C27.5428 11.7851 27.4603 11.7561 27.3883 11.7561C27.245 11.7561 27.1605 11.6962 27.1605 11.5944C27.1605 11.5586 27.1155 11.4898 27.0599 11.4419C27.0044 11.3936 26.9593 11.3232 26.9593 11.2854C26.9593 11.198 26.5207 10.7912 26.4262 10.7908C26.3678 10.7904 26.3324 10.7389 26.3638 10.6999C26.3855 10.6737 26.2105 10.5088 26.161 10.5088C26.1055 10.5088 26.1067 10.4886 26.1803 10.2021C26.2117 10.0794 26.0495 10.0339 25.3345 9.96554C25.005 9.93375 24.7265 9.89874 24.7152 9.88747C24.7036 9.87621 24.7241 9.85528 24.7607 9.8416C24.7969 9.82752 24.8267 9.79332 24.8267 9.76555C24.8267 9.70841 25.0581 9.6722 25.7522 9.62069C26.5883 9.55913 28.8956 9.49636 29.6851 9.51366C30.4565 9.53096 30.4601 9.53136 30.6488 9.64805C30.7812 9.72974 30.8689 9.8251 30.9409 9.96473L31.0435 10.1643L31.0556 11.8857C31.0624 12.8816 31.0524 13.6071 31.0315 13.6071C31.0117 13.6071 30.9848 13.8924 30.9711 14.2409C30.9578 14.5893 30.9289 15.0106 30.9067 15.1764C30.8625 15.5104 30.8275 15.8134 30.8242 15.8906C30.8198 15.9997 30.749 15.9313 30.6782 15.7498ZM17.4309 20.337L17.4345 20.2766C17.443 20.3092 17.459 20.3478 17.4832 20.3925C17.5234 20.4674 17.5721 20.5104 17.6192 20.5245C17.5987 20.5265 17.5761 20.5273 17.5516 20.5273L17.4184 20.5281L17.4309 20.337ZM15.6523 15.3977C15.6523 15.3643 15.6882 15.3374 15.7328 15.3374C15.7775 15.3374 15.8133 15.3643 15.8133 15.3977C15.8133 15.4311 15.7775 15.4581 15.7328 15.4581C15.6882 15.4581 15.6523 15.4311 15.6523 15.3977ZM17.7459 20.1459H17.8051L17.8003 20.3012C17.7975 20.3833 17.7846 20.438 17.7524 20.4726C17.7797 20.434 17.7979 20.3764 17.8003 20.3012C17.8035 20.1929 17.8043 20.1599 17.7459 20.1459ZM17.4405 20.1813L17.443 20.1459H17.4868C17.4659 20.1539 17.4506 20.1656 17.4405 20.1813Z" fill="#D6426C"/>
<path d="M4.85612 13.5402C4.84124 13.5257 4.82917 12.5842 4.82917 11.4478V9.38238H6.10955C7.51427 9.38238 7.73599 9.40572 8.10658 9.59283C8.40757 9.74453 8.88359 10.2141 9.00712 10.4805C9.58937 11.7383 8.9033 13.1596 7.54687 13.506C7.35815 13.5539 7.04831 13.5672 6.09507 13.5672C5.42831 13.5672 4.87061 13.5551 4.85612 13.5402ZM2.11307 13.5205C2.00242 13.4996 1.76541 13.4119 1.58635 13.3257C0.505951 12.8047 0.0729854 11.4128 0.676159 10.398C0.766293 10.2463 0.919199 10.0491 1.01577 9.96021C1.23105 9.76143 1.63866 9.51879 1.8644 9.45441C1.97385 9.42302 2.48085 9.4017 3.31057 9.39325L4.58854 9.38037L4.57808 11.4635L4.56762 13.5471L3.44094 13.5531C2.82127 13.5563 2.22373 13.5418 2.11307 13.5205ZM5.15107 11.4345C5.15107 12.2755 5.16435 12.9636 5.18085 12.9636C5.21586 12.9636 6.72037 11.4667 6.72037 11.4317C6.72037 11.3939 5.22431 9.90548 5.18608 9.90548C5.16677 9.90548 5.15107 10.5936 5.15107 11.4345ZM5.43274 13.1744C5.43274 13.1913 5.85444 13.205 6.36989 13.205C7.08453 13.205 7.36378 13.1901 7.54526 13.1431C7.82934 13.069 8.10336 12.9254 8.11906 12.8425C8.1255 12.8095 7.86757 12.5202 7.54606 12.1995L6.9618 11.6164L6.19727 12.3801C5.77678 12.8002 5.43274 13.1575 5.43274 13.1744ZM7.79514 12.0466C8.19229 12.4441 8.34278 12.6051 8.44539 12.5785C8.51742 12.5604 8.5657 12.4498 8.65946 12.2643C8.97251 11.6446 8.92463 10.9287 8.53432 10.3968L8.40757 10.2242L7.8052 10.7988C7.47404 11.1146 7.20323 11.3915 7.20323 11.4136C7.20323 11.4357 7.46961 11.7202 7.79514 12.0466ZM6.17836 10.4588C6.59201 10.8628 6.94168 11.1923 6.95617 11.1919C6.97025 11.1911 7.25071 10.93 7.57866 10.6113C7.97058 10.2314 8.12952 10.0946 8.10578 10.0065C8.08888 9.9425 7.97581 9.90427 7.78669 9.81736C7.60159 9.73205 7.51468 9.7232 6.70025 9.70429C6.21337 9.69343 5.72769 9.69343 5.62106 9.70429L5.42671 9.72441L6.17836 10.4588ZM16.6838 17.5391C16.6339 17.5025 16.6166 17.4454 16.6259 17.348L16.6391 17.2088H17.3232L17.3365 17.348C17.3538 17.5323 17.2681 17.591 16.9812 17.591C16.8568 17.591 16.7232 17.5677 16.6838 17.5391ZM13.7198 14.5478C13.6659 14.4061 13.7062 14.2971 13.822 14.2677C14.0309 14.2154 14.1596 14.3458 14.1069 14.5558C14.086 14.6391 14.0582 14.6536 13.9214 14.6536C13.7842 14.6536 13.754 14.6379 13.7198 14.5478ZM16.5546 11.6599C16.5426 11.6285 16.5385 11.5428 16.5458 11.4687C16.5599 11.3235 16.6488 11.2824 16.8444 11.3315C16.9216 11.3508 16.9409 11.3818 16.9409 11.4877C16.9409 11.5601 16.9192 11.6414 16.8926 11.6679C16.8254 11.7351 16.5812 11.7295 16.5546 11.6599ZM16.5655 13.6207C16.5506 13.6062 16.5385 13.5245 16.5385 13.4396V13.2855H16.7397C16.9353 13.2855 16.9409 13.2887 16.9409 13.403C16.9409 13.603 16.9047 13.6477 16.7421 13.6477C16.6597 13.6477 16.58 13.6356 16.5655 13.6207ZM17.466 12.6244C17.4399 12.5926 17.4242 12.5065 17.431 12.4333C17.4431 12.3097 17.4556 12.2989 17.6008 12.2868C17.699 12.2787 17.7702 12.2936 17.7912 12.327C17.8411 12.4051 17.8334 12.5781 17.7779 12.6336C17.7115 12.7 17.5244 12.6944 17.466 12.6244ZM16.4742 15.563C16.4621 15.5316 16.4581 15.4459 16.4653 15.3719C16.4778 15.2407 16.4834 15.2371 16.6593 15.2371C16.8347 15.2371 16.8407 15.2411 16.8532 15.3707C16.86 15.4439 16.8444 15.53 16.8182 15.5618C16.7558 15.6366 16.5027 15.6374 16.4742 15.563ZM15.5555 21.3907C15.4103 21.2455 15.5225 21.0382 15.7354 21.0584C15.867 21.0708 15.8754 21.0805 15.8867 21.2374C15.8971 21.3815 15.8867 21.4064 15.8062 21.4282C15.6658 21.4656 15.6243 21.4595 15.5555 21.3907ZM17.4841 20.3928C17.3779 20.1961 17.423 20.1184 17.6346 20.1337C17.8056 20.1462 17.8061 20.1466 17.8012 20.3015C17.7928 20.5578 17.6024 20.6125 17.4841 20.3928Z" fill="#F06442"/>
<path d="M28.4883 22.5981C28.0864 22.512 27.5951 22.2504 27.3218 21.9772C26.443 21.0984 26.4193 19.7565 27.2659 18.8418C27.6896 18.3843 28.2365 18.1562 28.9125 18.1546C29.5354 18.1538 30.0061 18.3441 30.4419 18.7742C30.7715 19.0994 30.9469 19.4088 31.0664 19.8752C31.161 20.2458 31.165 20.5395 31.0793 20.888C30.8672 21.7495 30.1768 22.419 29.3132 22.6005C28.9724 22.6717 28.8292 22.6717 28.4883 22.5981ZM23.1769 12.561H24.2231V17.4299H23.1769V12.561ZM28.7809 20.3069C28.7833 20.2116 28.7318 20.0116 28.6549 19.8164C28.5407 19.5279 28.5113 19.4853 28.4163 19.4744C28.3515 19.4672 28.3024 19.4338 28.2948 19.3915C28.2823 19.3271 28.331 19.3211 28.8706 19.3211C29.4102 19.3211 29.4589 19.3271 29.4468 19.3915C29.438 19.4378 29.3889 19.4663 29.3028 19.4744C29.2311 19.4816 29.1724 19.5001 29.1724 19.5162C29.1724 19.5319 29.2106 19.6531 29.2577 19.785C29.3044 19.9174 29.4138 20.2333 29.5007 20.488C29.7567 21.2376 29.8641 21.5028 29.8979 21.467C29.9156 21.4485 29.9985 21.2163 30.0822 20.9507C30.287 20.3005 30.2846 20.1544 30.0621 19.7074C29.8585 19.299 29.8581 19.1404 30.0597 18.9915C30.1248 18.9432 30.1784 18.8845 30.1784 18.8608C30.178 18.7887 29.8098 18.5658 29.5458 18.4785C29.3611 18.4173 29.1917 18.3956 28.8984 18.3956C28.4586 18.3956 28.1946 18.462 27.8606 18.6568C27.6614 18.7726 27.2007 19.2092 27.2007 19.2821C27.2007 19.3046 27.3556 19.3211 27.5657 19.3211C27.8916 19.3211 27.9294 19.3287 27.9174 19.3915C27.9101 19.4301 27.8622 19.468 27.8115 19.4752C27.7604 19.4824 27.7105 19.5102 27.7001 19.5372C27.6896 19.5645 27.8357 20.0281 28.0244 20.5677C28.2131 21.1069 28.3684 21.5587 28.3696 21.5716C28.3777 21.663 28.7777 20.4333 28.7809 20.3069ZM25.1486 12.561H27.9652V13.5268H25.1486V12.561ZM25.1711 15.4485C25.1321 15.3218 25.1119 14.9371 25.1349 14.7444L25.1598 14.5327H27.9677L27.9451 15.4783L26.5658 15.4888C25.4825 15.4972 25.1832 15.4888 25.1711 15.4485ZM25.1486 16.5044H27.9652V16.9189C27.9652 17.1876 27.9483 17.3502 27.917 17.3816C27.8811 17.4174 27.513 17.4299 26.5086 17.4299H25.1486V16.5044ZM29.2939 22.3752C29.407 22.351 29.5092 22.3072 29.5201 22.2782C29.5382 22.2307 29.4561 21.9885 29.0706 20.9507C28.9821 20.7121 28.8907 20.5407 28.8907 20.6127C28.8907 20.6236 28.764 20.9994 28.6091 21.4481C28.4541 21.8963 28.3274 22.2794 28.3274 22.2987C28.3274 22.3973 28.9583 22.4472 29.2939 22.3752ZM27.5275 20.8715C27.2703 20.1741 27.0434 19.6036 27.0229 19.6032C27.0027 19.6028 26.9979 19.6148 27.0124 19.6293C27.0273 19.6438 27.0233 19.6756 27.004 19.6997C26.9846 19.7239 26.9484 19.8394 26.9239 19.9569C26.7959 20.5628 26.946 21.1865 27.3327 21.6589C27.5061 21.871 27.915 22.1889 27.9701 22.1547C27.9842 22.1462 27.785 21.5688 27.5275 20.8715ZM30.0898 22.0002C30.1494 21.9688 30.2653 21.8738 30.347 21.7889C30.7272 21.3934 30.932 20.8232 30.8914 20.2723C30.8693 19.9709 30.7622 19.5625 30.7055 19.5625C30.6874 19.5625 30.6604 19.6623 30.6463 19.7842C30.6318 19.9062 30.5047 20.327 30.3635 20.7198C30.1087 21.4272 29.9369 21.9519 29.9369 22.0215C29.9369 22.0706 29.9631 22.067 30.0898 22.0002ZM4.99596 17.7771C4.98992 17.4995 4.99677 17.4665 5.04948 17.5104C5.08247 17.5377 5.10984 17.5848 5.10984 17.6146C5.10984 17.6444 5.14766 17.6886 5.19393 17.7136C5.2398 17.7381 5.26717 17.7687 5.25429 17.7816C5.24141 17.7944 5.19514 17.7723 5.15128 17.7325C5.05833 17.6488 5.04103 17.6749 5.01729 17.9329C5.00924 18.0214 4.99958 17.9514 4.99596 17.7771Z" fill="#F7F8F8"/>
<path d="M5.43206 13.1744C5.43206 13.1575 5.7761 12.8001 6.19659 12.38L6.96112 11.6163L7.54538 12.1994C7.86688 12.5201 8.12481 12.8094 8.11838 12.8424C8.10268 12.9253 7.82866 13.0689 7.54458 13.143C7.3631 13.19 7.08385 13.2049 6.36921 13.2049C5.85376 13.2049 5.43206 13.1913 5.43206 13.1744ZM5.15039 11.4344C5.15039 10.5935 5.16608 9.90539 5.1854 9.90539C5.22362 9.90539 6.71969 11.3938 6.71969 11.4316C6.71969 11.4666 5.21517 12.9635 5.18017 12.9635C5.16367 12.9635 5.15039 12.2754 5.15039 11.4344ZM7.79446 12.0465C7.46893 11.7201 7.20255 11.4357 7.20255 11.4135C7.20255 11.3914 7.47335 11.1145 7.80452 10.7987L8.40688 10.2241L8.53363 10.3967C8.92395 10.9286 8.97183 11.6445 8.65878 12.2642C8.43183 12.7136 8.47006 12.7233 7.79446 12.0465ZM6.17768 10.4587L5.42602 9.72431L5.62037 9.70419C5.72701 9.69333 6.21268 9.69333 6.69957 9.70419C7.51399 9.72311 7.60091 9.73196 7.78601 9.81726C8.23627 10.0241 8.25398 9.95568 7.57797 10.6112C7.25003 10.9299 6.96957 11.191 6.95548 11.1918C6.941 11.1922 6.59133 10.8627 6.17768 10.4587Z" fill="#F8AD96"/>
</svg>
